<svg id="svg" fill="#978157" stroke="#978157" width="40" height="40" version="1.1" viewBox="144 144 512 512" xmlns="http://www.w3.org/2000/svg" stroke-width="0">
    <g id="IconSvg_bgCarrier" stroke-width="0"></g>
    <g id="IconSvg_tracerCarrier" stroke-linecap="round" stroke-linejoin="round" stroke="#CCCCCC" stroke-width="0">
      <g xmlns="http://www.w3.org/2000/svg">
  <path d="m536.45 295.04v-41.984c0-3.9883-2.2031-7.6602-5.7734-9.3398l-83.969-41.984c-0.10547 0-0.21094 0-0.31641-0.10547-1.3594-0.63281-2.8281-1.0508-4.4023-1.0508s-3.043 0.41797-4.4102 1.0508c-0.10547 0-0.21094 0-0.31641 0.10547l-79.242 39.566-79.246-39.676c-0.10547 0-0.21094 0-0.31641-0.10547-1.3633-0.52344-2.832-0.94141-4.4062-0.94141s-3.043 0.41797-4.4102 1.0508c-0.10547 0-0.21094 0-0.31641 0.10547l-83.969 41.984c-3.5664 1.6758-5.7695 5.3516-5.7695 9.3398v335.87c0 3.6719 1.8906 7.0312 4.9336 8.9219s6.9258 2.0977 10.18 0.41797l79.352-39.566 79.246 39.676c0.10547 0.10547 0.31641 0 0.41797 0.10547 1.3633 0.62891 2.7305 0.94531 4.0938 0.94531h0.21094c0.31641 0 0.62891-0.10547 0.94531-0.10547 0.52344 0 1.0508-0.10547 1.4688-0.21094 0.41797-0.10547 0.73437-0.21094 1.1562-0.41797 0.31641-0.10547 0.73437-0.21094 1.0508-0.31641l79.348-39.676 79.246 39.676c1.4648 0.62891 3.1445 1.0469 4.7188 1.0469 1.8906 0 3.8828-0.52344 5.5625-1.5742 3.0469-1.8867 4.9336-5.2461 4.9336-8.9219v-73.473c3.043 0 5.9844-1.3633 7.9766-3.6719 7.7695-9.0273 75.992-89.531 75.992-132.77 0-46.289-37.68-83.969-83.969-83.969zm-272.89 245.39-62.977 31.488v-312.36l62.977-31.488zm83.969 31.488-62.977-31.488v-312.36l62.977 31.488zm83.969-31.488-62.977 31.488v-312.36l62.977-31.488zm83.965 31.488-62.977-31.488 0.003907-161.43v-150.93l62.977 31.488v38.309c-36.105 9.3398-62.977 42.195-62.977 81.238 0 33.48 40.934 89.32 62.977 116.93zm20.992-83.336c-0.94531-1.1562-1.9961-2.4141-2.9375-3.6719 0-0.10547-0.10547-0.10547-0.10547-0.21094-23.301-29.074-59.93-80.191-59.93-105.7 0-34.742 28.234-62.977 62.977-62.977 34.742 0 62.977 28.234 62.977 62.977-0.003906 26.555-40.098 81.449-62.98 109.58z"></path>
  <path d="m536.45 337.02c-23.195 0-41.984 18.789-41.984 41.984 0 23.195 18.789 41.984 41.984 41.984 23.195 0 41.984-18.789 41.984-41.984 0-23.199-18.785-41.984-41.984-41.984zm0 62.977c-11.547 0-20.992-9.4453-20.992-20.992 0-11.547 9.4453-20.992 20.992-20.992 11.547 0 20.992 9.4453 20.992 20.992 0 11.543-9.4453 20.992-20.992 20.992z"></path>
 </g>

      </g>
     <g id="IconSvg_iconCarrier">
      <g xmlns="http://www.w3.org/2000/svg">
  <path d="m536.45 295.04v-41.984c0-3.9883-2.2031-7.6602-5.7734-9.3398l-83.969-41.984c-0.10547 0-0.21094 0-0.31641-0.10547-1.3594-0.63281-2.8281-1.0508-4.4023-1.0508s-3.043 0.41797-4.4102 1.0508c-0.10547 0-0.21094 0-0.31641 0.10547l-79.242 39.566-79.246-39.676c-0.10547 0-0.21094 0-0.31641-0.10547-1.3633-0.52344-2.832-0.94141-4.4062-0.94141s-3.043 0.41797-4.4102 1.0508c-0.10547 0-0.21094 0-0.31641 0.10547l-83.969 41.984c-3.5664 1.6758-5.7695 5.3516-5.7695 9.3398v335.87c0 3.6719 1.8906 7.0312 4.9336 8.9219s6.9258 2.0977 10.18 0.41797l79.352-39.566 79.246 39.676c0.10547 0.10547 0.31641 0 0.41797 0.10547 1.3633 0.62891 2.7305 0.94531 4.0938 0.94531h0.21094c0.31641 0 0.62891-0.10547 0.94531-0.10547 0.52344 0 1.0508-0.10547 1.4688-0.21094 0.41797-0.10547 0.73437-0.21094 1.1562-0.41797 0.31641-0.10547 0.73437-0.21094 1.0508-0.31641l79.348-39.676 79.246 39.676c1.4648 0.62891 3.1445 1.0469 4.7188 1.0469 1.8906 0 3.8828-0.52344 5.5625-1.5742 3.0469-1.8867 4.9336-5.2461 4.9336-8.9219v-73.473c3.043 0 5.9844-1.3633 7.9766-3.6719 7.7695-9.0273 75.992-89.531 75.992-132.77 0-46.289-37.68-83.969-83.969-83.969zm-272.89 245.39-62.977 31.488v-312.36l62.977-31.488zm83.969 31.488-62.977-31.488v-312.36l62.977 31.488zm83.969-31.488-62.977 31.488v-312.36l62.977-31.488zm83.965 31.488-62.977-31.488 0.003907-161.43v-150.93l62.977 31.488v38.309c-36.105 9.3398-62.977 42.195-62.977 81.238 0 33.48 40.934 89.32 62.977 116.93zm20.992-83.336c-0.94531-1.1562-1.9961-2.4141-2.9375-3.6719 0-0.10547-0.10547-0.10547-0.10547-0.21094-23.301-29.074-59.93-80.191-59.93-105.7 0-34.742 28.234-62.977 62.977-62.977 34.742 0 62.977 28.234 62.977 62.977-0.003906 26.555-40.098 81.449-62.98 109.58z"></path>
  <path d="m536.45 337.02c-23.195 0-41.984 18.789-41.984 41.984 0 23.195 18.789 41.984 41.984 41.984 23.195 0 41.984-18.789 41.984-41.984 0-23.199-18.785-41.984-41.984-41.984zm0 62.977c-11.547 0-20.992-9.4453-20.992-20.992 0-11.547 9.4453-20.992 20.992-20.992 11.547 0 20.992 9.4453 20.992 20.992 0 11.543-9.4453 20.992-20.992 20.992z"></path>
 </g>

      </g>
      </svg>