<svg id="svg" fill="#978157" stroke="#978157" width="40" height="40" version="1.1" viewBox="144 144 512 512" xmlns="http://www.w3.org/2000/svg">
    <g id="IconSvg_bgCarrier" stroke-width="0"></g>
    <g id="IconSvg_tracerCarrier" stroke-linecap="round" stroke-linejoin="round" stroke="#CCCCCC" stroke-width="0">
      <g xmlns="http://www.w3.org/2000/svg">
  <path d="m447.23 525.95h-94.465c-4.3477 0-7.8711 3.5195-7.8711 7.8711 0 30.383 24.719 55.105 55.105 55.105s55.105-24.723 55.105-55.105c-0.003907-4.3477-3.5273-7.8711-7.875-7.8711zm-47.23 47.234c-19.008 0-34.914-13.547-38.566-31.488h77.137c-3.6602 17.941-19.562 31.488-38.57 31.488z"></path>
  <path d="m376.38 470.85c0-4.3516-3.5234-7.8711-7.8711-7.8711h-31.488c-4.3477 0-7.8711 3.5195-7.8711 7.8711 0 4.3516 3.5234 7.8711 7.8711 7.8711h31.488c4.3477 0 7.8711-3.5195 7.8711-7.8711z"></path>
  <path d="m462.98 462.98h-31.488c-4.3477 0-7.8711 3.5195-7.8711 7.8711 0 4.3516 3.5234 7.8711 7.8711 7.8711h31.488c4.3477 0 7.8711-3.5195 7.8711-7.8711 0-4.3516-3.5273-7.8711-7.8711-7.8711z"></path>
  <path d="m636.16 415.74c0-63.676-47.859-117.01-110.25-124.84 0.003906-0.375 0.042969-0.73828 0.042969-1.1172 0-69.449-56.504-125.95-125.95-125.95-67.078 0-121.92 52.754-125.6 119.21-62.52 7.6211-110.56 61.055-110.56 124.82 0 64.566 48.906 118.24 112.41 125.04 10.863 59.262 62.914 103.25 123.76 103.25 57.719 0 108.06-39.699 122.08-95.191 64.41-6.0195 114.08-59.828 114.08-125.23zm-236.16-236.16c60.77 0 110.21 49.438 110.21 110.21-0.92578 0-1.8359 0.097657-2.7578 0.11719-1.4141 0.03125-2.8164 0.10156-4.2266 0.17969-2.6836 0.14844-5.3477 0.38672-8.0039 0.70312-1.2422 0.14844-2.4805 0.28906-3.7148 0.47266-3.0273 0.45312-6.0195 1.0352-8.9922 1.707-0.82812 0.1875-1.6641 0.33203-2.4883 0.53516-7.7695 1.9141-15.328 4.5547-22.582 7.9023-0.6875 0.31641-1.3438 0.6875-2.0234 1.0156-2.8164 1.3633-5.5898 2.8086-8.3008 4.3828-1.0898 0.62891-2.1484 1.3047-3.2188 1.9688-2.2461 1.3945-4.4531 2.8477-6.6172 4.3867-1.1875 0.84375-2.3594 1.6992-3.5156 2.582-0.76953 0.58594-1.5781 1.1094-2.332 1.7148-0.14453-0.12891-0.3125-0.21094-0.45703-0.33594-1.9062-1.6484-3.918-3.1289-6.0273-4.4414-0.34766-0.21484-0.69922-0.42188-1.0508-0.62891-2.1523-1.2617-4.3828-2.3633-6.6953-3.2656-0.33203-0.12891-0.67188-0.23828-1.0078-0.35938-2.3945-0.87109-4.8477-1.582-7.3672-2.0547-0.23438-0.042969-0.47266-0.0625-0.70703-0.10547-2.668-0.45703-5.375-0.73047-8.1211-0.73047s-5.4453 0.30078-8.1094 0.76953c-0.82812 0.14453-1.6289 0.37109-2.4453 0.55859-1.8516 0.42578-3.6641 0.94141-5.4453 1.5859-0.87109 0.31641-1.7227 0.64453-2.5742 1.0117-1.7773 0.76172-3.4883 1.6523-5.168 2.6328-0.68359 0.39844-1.3867 0.74609-2.0508 1.1797-0.25 0.16406-0.52344 0.27734-0.76953 0.44141-0.73438-0.65625-1.5312-1.2188-2.2812-1.8555-1.3359-1.1367-2.6914-2.2344-4.0664-3.3086-1.7695-1.3867-3.5703-2.7148-5.4023-3.9961-1.4219-0.99609-2.8555-1.9688-4.3125-2.9023-1.8828-1.2031-3.8008-2.332-5.7383-3.4297-1.4961-0.84766-2.9844-1.6914-4.5117-2.4727-2.0039-1.0273-4.0469-1.9609-6.1016-2.875-1.5352-0.68359-3.0625-1.3906-4.625-2.0117-2.1406-0.85156-4.3242-1.5859-6.5078-2.3164-1.543-0.51562-3.0703-1.0742-4.6367-1.5312-2.332-0.67969-4.707-1.2188-7.082-1.7617-1.4766-0.33984-2.9297-0.74219-4.418-1.0273-2.75-0.52734-5.5391-0.88281-8.3359-1.2266-1.1602-0.14453-2.2969-0.36719-3.4648-0.48047-3.9258-0.38672-7.8906-0.59375-11.887-0.60156 4.0547-57.109 51.812-102.34 109.93-102.34zm10.441 159.3c-0.33203 0.42969-0.61328 0.89062-0.9375 1.3203-2.2852 3.0391-4.418 6.1875-6.4219 9.4219-0.28516 0.46094-0.63281 0.875-0.91016 1.3359-0.27344-0.53906-0.63672-1.0273-0.91797-1.5625-1.8594-3.5352-3.8789-6.9766-6.0742-10.328-0.38281-0.58203-0.70703-1.1992-1.0977-1.7734-2.625-3.8633-5.5078-7.5664-8.5742-11.152-0.21484-0.25-0.38281-0.52734-0.59766-0.77734 10.066-5.3086 22.707-4.9336 32.316 1.1094 0.25391 0.16406 0.5 0.33594 0.75 0.50391 0.57031 0.38281 1.0742 0.875 1.6211 1.3008-0.23047 0.23828-0.41797 0.50781-0.64453 0.74609-3.0078 3.1641-5.8672 6.4297-8.5117 9.8555zm-230.86 68.984c0-57.871 45.176-106.15 103.05-109.93 2.3594-0.21484 4.7227-0.28125 7.1523-0.28125 7.3359 0 14.562 0.71094 21.598 2.1016 21.105 4.168 40.504 14.438 56.047 29.922 5 5.0039 9.4688 10.371 13.371 16.062 0.98047 1.4336 1.8203 2.9453 2.7305 4.4141 0.89844 1.457 1.8711 2.8711 2.6992 4.3633 0.10547 0.19141 0.1875 0.39844 0.29297 0.59375 1.543 2.8203 2.9844 5.6953 4.2734 8.6445 0.80859 1.8711 1.5117 3.8164 2.2266 5.7578-1.0742 2.7266-2.043 5.5117-2.9336 8.3281-0.18359 0.57813-0.33203 1.1641-0.50781 1.7461-0.52344 1.7305-1.0625 3.457-1.5156 5.2148-0.80859 0.074219-1.6055 0.21484-2.4141 0.30469-1.1719 0.12891-2.3398 0.27734-3.5039 0.44141-2.0391 0.28516-4.0586 0.62891-6.0742 1.0117-1.0977 0.21094-2.1992 0.41016-3.2891 0.65234-2.1641 0.47656-4.3047 1.0352-6.4375 1.6289-0.89844 0.25-1.8047 0.46484-2.6992 0.73438-1.6836 0.51172-3.3438 1.1055-5.0039 1.6914 6.0469-5.7383 9.8633-13.793 9.8633-22.766 0-17.367-14.125-31.488-31.488-31.488-17.363 0-31.488 14.121-31.488 31.488 0 17.367 14.125 31.488 31.488 31.488 0.90234 0 1.7539-0.19141 2.6406-0.26562-17.156 9.4062-32.117 22.867-43.34 39.113-2.2148 0.30078-4.4102 0.51172-6.5352 0.51172-10.844 0-21.879-3.9062-29.246-7.1953-8.0898-3.582-13.574-7.1953-13.625-7.2344-2.418-1.5977-5.5273-1.7461-8.0781-0.375-2.5547 1.375-4.1523 4.0352-4.1523 6.9336 0 25.562 17.812 47.469 41.93 53.434-1.7031 8.2617-2.5703 16.73-2.5703 25.285 0 2.2812 0.058594 4.5352 0.16797 6.7422-53.754-7.5898-94.633-53.836-94.633-109.08zm157.44-23.617c-8.6836 0-15.742-7.0664-15.742-15.742 0-8.6797 7.0625-15.742 15.742-15.742 8.6836 0 15.742 7.0664 15.742 15.742 0 8.6797-7.0586 15.742-15.742 15.742zm-52.559 75.941c-0.75781 1.7461-1.4609 3.5117-2.1367 5.2852-0.375 0.98828-0.76172 1.9727-1.1133 2.9688-0.15625 0.44141-0.34375 0.87109-0.49219 1.3164-12.512-2.9688-22.691-11.953-27.422-23.602 0.28125 0.12109 0.56641 0.25391 0.84766 0.375 8.0977 3.6133 20.09 7.8711 32.637 8.4805-0.33984 0.69531-0.625 1.4141-0.94922 2.1172-0.47266 1.0195-0.92969 2.0352-1.3711 3.0586zm115.54 160.22c-55.082 0-102.05-41.16-109.26-95.793-0.62891-4.4727-0.94922-9.3164-0.94922-14.414 0-10.062 1.3555-19.996 4.043-29.543 2.9453-10.637 7.5195-20.82 13.594-30.266 12.656-19.543 31.461-34.828 53.004-43.066 2.7266-1.0664 5.4922-2.0156 8.293-2.8477 8.4023-2.5 17.125-3.957 26.023-4.3398 3.707-0.15234 7.5781-0.20703 11.652 0.078125 11.5 0.65234 22.668 3.043 33.199 7.125 20.203 7.7812 37.473 21.188 50.016 38.875 6.0977 8.3008 10.891 17.473 14.285 27.359 4.1875 11.664 6.3086 23.98 6.3086 36.625 0 7.3945-0.71875 14.777-2.1328 21.934-10.383 51.152-55.832 88.273-108.07 88.273zm109.09-173.17c16.641-0.40625 31.68 9.8867 37.641 24.676-0.29688-0.12891-0.59375-0.26172-0.89453-0.39844-10.203-4.5352-19.902-7.2734-28.93-8.1562-0.21484-0.55078-0.48438-1.0742-0.71094-1.6211-0.58203-1.418-1.207-2.8125-1.8438-4.2031-0.60156-1.3086-1.207-2.6172-1.8555-3.9023-0.69531-1.3828-1.4297-2.7383-2.1797-4.0898-0.42187-0.76172-0.78906-1.5508-1.2266-2.3047zm16.02 77.691c0.035157-0.32422 0.019531-0.65234 0.054688-0.97266 0.48828-4.5625 0.78125-9.1523 0.78125-13.758 0-10.223-1.2812-20.254-3.6758-29.949 6.5039 1.4219 12.602 3.625 17.176 5.6562 8.0898 3.582 13.574 7.1953 13.625 7.2344 1.3203 0.86719 2.8398 1.3086 4.3633 1.3086 1.2773 0 2.5547-0.30859 3.7227-0.92969 2.5508-1.3789 4.1523-4.0391 4.1523-6.9375 0-30.383-24.719-55.105-55.105-55.105-3.7422 0-7.4336 0.51953-11.082 1.2734-13.953-18.004-32.438-31.848-53.855-40.105-2.7461-1.0625-5.543-1.9961-8.3594-2.8594 0.19922-0.19531 0.45703-0.29688 0.63672-0.51562 6.8984-8.3125 15.926-12.895 25.43-12.895 9.5 0 18.531 4.582 25.426 12.898 1.5547 1.875 3.8008 2.8438 6.0625 2.8438 1.7734 0 3.5508-0.59375 5.0195-1.8125 3.3477-2.7734 3.8125-7.7344 1.0391-11.086-9.9375-11.984-23.277-18.59-37.547-18.59-14.273 0-27.609 6.6055-37.551 18.59-1.7891 2.1602-2.0938 4.9531-1.2852 7.4375-5.5117-1.0625-11.094-1.832-16.738-2.1484-0.93359-0.066406-1.8672-0.12109-2.8008-0.16406 0.0625-0.20703 0.10156-0.42187 0.16406-0.625 1.0703-3.4922 2.3008-6.8906 3.668-10.191 0.11328-0.26953 0.19141-0.5625 0.30469-0.82812 1.2656-2.8945 2.6016-5.7148 3.9688-8.3828 5.9648-11.273 13.855-21.445 23.461-30.223 22.078-20 51.336-30.309 81.098-28.344 57.84 3.6875 103.15 52.004 103.15 109.98 0 55.703-41.137 101.92-95.301 109.2z"></path>
  <path d="m594.99 379.23c-9.9414-11.984-23.277-18.59-37.551-18.59s-27.609 6.6055-37.551 18.59c-2.7734 3.3516-2.3086 8.3086 1.0391 11.086 3.3477 2.7891 8.3086 2.3125 11.086-1.0312 6.8984-8.3164 15.926-12.898 25.426-12.898s18.531 4.582 25.426 12.898c1.5586 1.875 3.8047 2.8438 6.0664 2.8438 1.7734 0 3.5508-0.59375 5.0195-1.8125 3.3477-2.7773 3.8164-7.7344 1.0391-11.086z"></path>
  <path d="m352.77 281.92c21.703 0 39.359-17.66 39.359-39.359 0-2.7227-1.4141-5.25-3.7266-6.6875-2.3164-1.4375-5.2109-1.5625-7.6523-0.35938-0.14453 0.074219-14.359 7.0469-27.98 7.0469-13.617 0-27.836-6.9727-27.98-7.0508-2.4414-1.1992-5.3359-1.0781-7.6523 0.35938-2.3125 1.4414-3.7266 3.9688-3.7266 6.6914 0 21.703 17.66 39.359 39.359 39.359zm0-23.617c7.0664 0 14.051-1.375 19.895-3.0352-4.1992 6.5586-11.551 10.91-19.895 10.91s-15.695-4.3516-19.895-10.91c5.8477 1.6602 12.832 3.0352 19.895 3.0352z"></path>
  <path d="m447.23 281.92c21.703 0 39.359-17.66 39.359-39.359 0-2.7227-1.4141-5.25-3.7266-6.6875-2.3164-1.4375-5.2148-1.5625-7.6523-0.35938-0.14453 0.074219-14.363 7.0469-27.98 7.0469-13.617 0-27.836-6.9727-27.98-7.0508-2.4414-1.1992-5.3359-1.0781-7.6523 0.35938-2.3125 1.4414-3.7266 3.9688-3.7266 6.6914 0 21.703 17.656 39.359 39.359 39.359zm0-23.617c7.0664 0 14.051-1.375 19.895-3.0352-4.1992 6.5586-11.551 10.91-19.895 10.91s-15.695-4.3516-19.895-10.91c5.8477 1.6602 12.828 3.0352 19.895 3.0352z"></path>
  <path d="m274.05 368.51c0-17.367-14.125-31.488-31.488-31.488-17.363 0-31.488 14.121-31.488 31.488 0 17.367 14.125 31.488 31.488 31.488 17.363 0 31.488-14.125 31.488-31.488zm-47.234 0c0-8.6797 7.0625-15.742 15.742-15.742 8.6836 0 15.742 7.0664 15.742 15.742 0 8.6797-7.0625 15.742-15.742 15.742-8.6797 0-15.742-7.0625-15.742-15.742z"></path>
 </g>

      </g>
     <g id="IconSvg_iconCarrier">
      <g xmlns="http://www.w3.org/2000/svg">
  <path d="m447.23 525.95h-94.465c-4.3477 0-7.8711 3.5195-7.8711 7.8711 0 30.383 24.719 55.105 55.105 55.105s55.105-24.723 55.105-55.105c-0.003907-4.3477-3.5273-7.8711-7.875-7.8711zm-47.23 47.234c-19.008 0-34.914-13.547-38.566-31.488h77.137c-3.6602 17.941-19.562 31.488-38.57 31.488z"></path>
  <path d="m376.38 470.85c0-4.3516-3.5234-7.8711-7.8711-7.8711h-31.488c-4.3477 0-7.8711 3.5195-7.8711 7.8711 0 4.3516 3.5234 7.8711 7.8711 7.8711h31.488c4.3477 0 7.8711-3.5195 7.8711-7.8711z"></path>
  <path d="m462.98 462.98h-31.488c-4.3477 0-7.8711 3.5195-7.8711 7.8711 0 4.3516 3.5234 7.8711 7.8711 7.8711h31.488c4.3477 0 7.8711-3.5195 7.8711-7.8711 0-4.3516-3.5273-7.8711-7.8711-7.8711z"></path>
  <path d="m636.16 415.74c0-63.676-47.859-117.01-110.25-124.84 0.003906-0.375 0.042969-0.73828 0.042969-1.1172 0-69.449-56.504-125.95-125.95-125.95-67.078 0-121.92 52.754-125.6 119.21-62.52 7.6211-110.56 61.055-110.56 124.82 0 64.566 48.906 118.24 112.41 125.04 10.863 59.262 62.914 103.25 123.76 103.25 57.719 0 108.06-39.699 122.08-95.191 64.41-6.0195 114.08-59.828 114.08-125.23zm-236.16-236.16c60.77 0 110.21 49.438 110.21 110.21-0.92578 0-1.8359 0.097657-2.7578 0.11719-1.4141 0.03125-2.8164 0.10156-4.2266 0.17969-2.6836 0.14844-5.3477 0.38672-8.0039 0.70312-1.2422 0.14844-2.4805 0.28906-3.7148 0.47266-3.0273 0.45312-6.0195 1.0352-8.9922 1.707-0.82812 0.1875-1.6641 0.33203-2.4883 0.53516-7.7695 1.9141-15.328 4.5547-22.582 7.9023-0.6875 0.31641-1.3438 0.6875-2.0234 1.0156-2.8164 1.3633-5.5898 2.8086-8.3008 4.3828-1.0898 0.62891-2.1484 1.3047-3.2188 1.9688-2.2461 1.3945-4.4531 2.8477-6.6172 4.3867-1.1875 0.84375-2.3594 1.6992-3.5156 2.582-0.76953 0.58594-1.5781 1.1094-2.332 1.7148-0.14453-0.12891-0.3125-0.21094-0.45703-0.33594-1.9062-1.6484-3.918-3.1289-6.0273-4.4414-0.34766-0.21484-0.69922-0.42188-1.0508-0.62891-2.1523-1.2617-4.3828-2.3633-6.6953-3.2656-0.33203-0.12891-0.67188-0.23828-1.0078-0.35938-2.3945-0.87109-4.8477-1.582-7.3672-2.0547-0.23438-0.042969-0.47266-0.0625-0.70703-0.10547-2.668-0.45703-5.375-0.73047-8.1211-0.73047s-5.4453 0.30078-8.1094 0.76953c-0.82812 0.14453-1.6289 0.37109-2.4453 0.55859-1.8516 0.42578-3.6641 0.94141-5.4453 1.5859-0.87109 0.31641-1.7227 0.64453-2.5742 1.0117-1.7773 0.76172-3.4883 1.6523-5.168 2.6328-0.68359 0.39844-1.3867 0.74609-2.0508 1.1797-0.25 0.16406-0.52344 0.27734-0.76953 0.44141-0.73438-0.65625-1.5312-1.2188-2.2812-1.8555-1.3359-1.1367-2.6914-2.2344-4.0664-3.3086-1.7695-1.3867-3.5703-2.7148-5.4023-3.9961-1.4219-0.99609-2.8555-1.9688-4.3125-2.9023-1.8828-1.2031-3.8008-2.332-5.7383-3.4297-1.4961-0.84766-2.9844-1.6914-4.5117-2.4727-2.0039-1.0273-4.0469-1.9609-6.1016-2.875-1.5352-0.68359-3.0625-1.3906-4.625-2.0117-2.1406-0.85156-4.3242-1.5859-6.5078-2.3164-1.543-0.51562-3.0703-1.0742-4.6367-1.5312-2.332-0.67969-4.707-1.2188-7.082-1.7617-1.4766-0.33984-2.9297-0.74219-4.418-1.0273-2.75-0.52734-5.5391-0.88281-8.3359-1.2266-1.1602-0.14453-2.2969-0.36719-3.4648-0.48047-3.9258-0.38672-7.8906-0.59375-11.887-0.60156 4.0547-57.109 51.812-102.34 109.93-102.34zm10.441 159.3c-0.33203 0.42969-0.61328 0.89062-0.9375 1.3203-2.2852 3.0391-4.418 6.1875-6.4219 9.4219-0.28516 0.46094-0.63281 0.875-0.91016 1.3359-0.27344-0.53906-0.63672-1.0273-0.91797-1.5625-1.8594-3.5352-3.8789-6.9766-6.0742-10.328-0.38281-0.58203-0.70703-1.1992-1.0977-1.7734-2.625-3.8633-5.5078-7.5664-8.5742-11.152-0.21484-0.25-0.38281-0.52734-0.59766-0.77734 10.066-5.3086 22.707-4.9336 32.316 1.1094 0.25391 0.16406 0.5 0.33594 0.75 0.50391 0.57031 0.38281 1.0742 0.875 1.6211 1.3008-0.23047 0.23828-0.41797 0.50781-0.64453 0.74609-3.0078 3.1641-5.8672 6.4297-8.5117 9.8555zm-230.86 68.984c0-57.871 45.176-106.15 103.05-109.93 2.3594-0.21484 4.7227-0.28125 7.1523-0.28125 7.3359 0 14.562 0.71094 21.598 2.1016 21.105 4.168 40.504 14.438 56.047 29.922 5 5.0039 9.4688 10.371 13.371 16.062 0.98047 1.4336 1.8203 2.9453 2.7305 4.4141 0.89844 1.457 1.8711 2.8711 2.6992 4.3633 0.10547 0.19141 0.1875 0.39844 0.29297 0.59375 1.543 2.8203 2.9844 5.6953 4.2734 8.6445 0.80859 1.8711 1.5117 3.8164 2.2266 5.7578-1.0742 2.7266-2.043 5.5117-2.9336 8.3281-0.18359 0.57813-0.33203 1.1641-0.50781 1.7461-0.52344 1.7305-1.0625 3.457-1.5156 5.2148-0.80859 0.074219-1.6055 0.21484-2.4141 0.30469-1.1719 0.12891-2.3398 0.27734-3.5039 0.44141-2.0391 0.28516-4.0586 0.62891-6.0742 1.0117-1.0977 0.21094-2.1992 0.41016-3.2891 0.65234-2.1641 0.47656-4.3047 1.0352-6.4375 1.6289-0.89844 0.25-1.8047 0.46484-2.6992 0.73438-1.6836 0.51172-3.3438 1.1055-5.0039 1.6914 6.0469-5.7383 9.8633-13.793 9.8633-22.766 0-17.367-14.125-31.488-31.488-31.488-17.363 0-31.488 14.121-31.488 31.488 0 17.367 14.125 31.488 31.488 31.488 0.90234 0 1.7539-0.19141 2.6406-0.26562-17.156 9.4062-32.117 22.867-43.34 39.113-2.2148 0.30078-4.4102 0.51172-6.5352 0.51172-10.844 0-21.879-3.9062-29.246-7.1953-8.0898-3.582-13.574-7.1953-13.625-7.2344-2.418-1.5977-5.5273-1.7461-8.0781-0.375-2.5547 1.375-4.1523 4.0352-4.1523 6.9336 0 25.562 17.812 47.469 41.93 53.434-1.7031 8.2617-2.5703 16.73-2.5703 25.285 0 2.2812 0.058594 4.5352 0.16797 6.7422-53.754-7.5898-94.633-53.836-94.633-109.08zm157.44-23.617c-8.6836 0-15.742-7.0664-15.742-15.742 0-8.6797 7.0625-15.742 15.742-15.742 8.6836 0 15.742 7.0664 15.742 15.742 0 8.6797-7.0586 15.742-15.742 15.742zm-52.559 75.941c-0.75781 1.7461-1.4609 3.5117-2.1367 5.2852-0.375 0.98828-0.76172 1.9727-1.1133 2.9688-0.15625 0.44141-0.34375 0.87109-0.49219 1.3164-12.512-2.9688-22.691-11.953-27.422-23.602 0.28125 0.12109 0.56641 0.25391 0.84766 0.375 8.0977 3.6133 20.09 7.8711 32.637 8.4805-0.33984 0.69531-0.625 1.4141-0.94922 2.1172-0.47266 1.0195-0.92969 2.0352-1.3711 3.0586zm115.54 160.22c-55.082 0-102.05-41.16-109.26-95.793-0.62891-4.4727-0.94922-9.3164-0.94922-14.414 0-10.062 1.3555-19.996 4.043-29.543 2.9453-10.637 7.5195-20.82 13.594-30.266 12.656-19.543 31.461-34.828 53.004-43.066 2.7266-1.0664 5.4922-2.0156 8.293-2.8477 8.4023-2.5 17.125-3.957 26.023-4.3398 3.707-0.15234 7.5781-0.20703 11.652 0.078125 11.5 0.65234 22.668 3.043 33.199 7.125 20.203 7.7812 37.473 21.188 50.016 38.875 6.0977 8.3008 10.891 17.473 14.285 27.359 4.1875 11.664 6.3086 23.98 6.3086 36.625 0 7.3945-0.71875 14.777-2.1328 21.934-10.383 51.152-55.832 88.273-108.07 88.273zm109.09-173.17c16.641-0.40625 31.68 9.8867 37.641 24.676-0.29688-0.12891-0.59375-0.26172-0.89453-0.39844-10.203-4.5352-19.902-7.2734-28.93-8.1562-0.21484-0.55078-0.48438-1.0742-0.71094-1.6211-0.58203-1.418-1.207-2.8125-1.8438-4.2031-0.60156-1.3086-1.207-2.6172-1.8555-3.9023-0.69531-1.3828-1.4297-2.7383-2.1797-4.0898-0.42187-0.76172-0.78906-1.5508-1.2266-2.3047zm16.02 77.691c0.035157-0.32422 0.019531-0.65234 0.054688-0.97266 0.48828-4.5625 0.78125-9.1523 0.78125-13.758 0-10.223-1.2812-20.254-3.6758-29.949 6.5039 1.4219 12.602 3.625 17.176 5.6562 8.0898 3.582 13.574 7.1953 13.625 7.2344 1.3203 0.86719 2.8398 1.3086 4.3633 1.3086 1.2773 0 2.5547-0.30859 3.7227-0.92969 2.5508-1.3789 4.1523-4.0391 4.1523-6.9375 0-30.383-24.719-55.105-55.105-55.105-3.7422 0-7.4336 0.51953-11.082 1.2734-13.953-18.004-32.438-31.848-53.855-40.105-2.7461-1.0625-5.543-1.9961-8.3594-2.8594 0.19922-0.19531 0.45703-0.29688 0.63672-0.51562 6.8984-8.3125 15.926-12.895 25.43-12.895 9.5 0 18.531 4.582 25.426 12.898 1.5547 1.875 3.8008 2.8438 6.0625 2.8438 1.7734 0 3.5508-0.59375 5.0195-1.8125 3.3477-2.7734 3.8125-7.7344 1.0391-11.086-9.9375-11.984-23.277-18.59-37.547-18.59-14.273 0-27.609 6.6055-37.551 18.59-1.7891 2.1602-2.0938 4.9531-1.2852 7.4375-5.5117-1.0625-11.094-1.832-16.738-2.1484-0.93359-0.066406-1.8672-0.12109-2.8008-0.16406 0.0625-0.20703 0.10156-0.42187 0.16406-0.625 1.0703-3.4922 2.3008-6.8906 3.668-10.191 0.11328-0.26953 0.19141-0.5625 0.30469-0.82812 1.2656-2.8945 2.6016-5.7148 3.9688-8.3828 5.9648-11.273 13.855-21.445 23.461-30.223 22.078-20 51.336-30.309 81.098-28.344 57.84 3.6875 103.15 52.004 103.15 109.98 0 55.703-41.137 101.92-95.301 109.2z"></path>
  <path d="m594.99 379.23c-9.9414-11.984-23.277-18.59-37.551-18.59s-27.609 6.6055-37.551 18.59c-2.7734 3.3516-2.3086 8.3086 1.0391 11.086 3.3477 2.7891 8.3086 2.3125 11.086-1.0312 6.8984-8.3164 15.926-12.898 25.426-12.898s18.531 4.582 25.426 12.898c1.5586 1.875 3.8047 2.8438 6.0664 2.8438 1.7734 0 3.5508-0.59375 5.0195-1.8125 3.3477-2.7773 3.8164-7.7344 1.0391-11.086z"></path>
  <path d="m352.77 281.92c21.703 0 39.359-17.66 39.359-39.359 0-2.7227-1.4141-5.25-3.7266-6.6875-2.3164-1.4375-5.2109-1.5625-7.6523-0.35938-0.14453 0.074219-14.359 7.0469-27.98 7.0469-13.617 0-27.836-6.9727-27.98-7.0508-2.4414-1.1992-5.3359-1.0781-7.6523 0.35938-2.3125 1.4414-3.7266 3.9688-3.7266 6.6914 0 21.703 17.66 39.359 39.359 39.359zm0-23.617c7.0664 0 14.051-1.375 19.895-3.0352-4.1992 6.5586-11.551 10.91-19.895 10.91s-15.695-4.3516-19.895-10.91c5.8477 1.6602 12.832 3.0352 19.895 3.0352z"></path>
  <path d="m447.23 281.92c21.703 0 39.359-17.66 39.359-39.359 0-2.7227-1.4141-5.25-3.7266-6.6875-2.3164-1.4375-5.2148-1.5625-7.6523-0.35938-0.14453 0.074219-14.363 7.0469-27.98 7.0469-13.617 0-27.836-6.9727-27.98-7.0508-2.4414-1.1992-5.3359-1.0781-7.6523 0.35938-2.3125 1.4414-3.7266 3.9688-3.7266 6.6914 0 21.703 17.656 39.359 39.359 39.359zm0-23.617c7.0664 0 14.051-1.375 19.895-3.0352-4.1992 6.5586-11.551 10.91-19.895 10.91s-15.695-4.3516-19.895-10.91c5.8477 1.6602 12.828 3.0352 19.895 3.0352z"></path>
  <path d="m274.05 368.51c0-17.367-14.125-31.488-31.488-31.488-17.363 0-31.488 14.121-31.488 31.488 0 17.367 14.125 31.488 31.488 31.488 17.363 0 31.488-14.125 31.488-31.488zm-47.234 0c0-8.6797 7.0625-15.742 15.742-15.742 8.6836 0 15.742 7.0664 15.742 15.742 0 8.6797-7.0625 15.742-15.742 15.742-8.6797 0-15.742-7.0625-15.742-15.742z"></path>
 </g>

      </g>
      </svg>