<svg id="svg" fill="#978157" stroke="#978157" width="40" height="40" version="1.1" viewBox="144 144 512 512" xmlns="http://www.w3.org/2000/svg">
    <g id="IconSvg_bgCarrier" stroke-width="0"></g>
    <g id="IconSvg_tracerCarrier" stroke-linecap="round" stroke-linejoin="round" stroke="#CCCCCC" stroke-width="0">
      <g xmlns="http://www.w3.org/2000/svg">
  <path d="m268.45 412.64c6.7734 2.0703 13.945-1.7109 16.07-8.4648l19.195-62.574c0.33203-0.82031 1.1289-1.3594 2.0156-1.3594h2.7227c0.33984-0.019532 0.66797 0.13281 0.875 0.40625 0.20312 0.27344 0.25391 0.63281 0.13281 0.95312l-38.441 125.95c-0.18359 0.45312-0.13281 0.96875 0.14062 1.3711 0.27344 0.40625 0.73047 0.64844 1.2188 0.64453h26.855c0.35547 0 0.69531 0.14453 0.94141 0.40234 0.25 0.25781 0.37891 0.60156 0.36719 0.95703v91.344c-0.25 4.5469 1.3789 8.9961 4.5117 12.305 3.1289 3.3086 7.4844 5.1836 12.039 5.1836 4.5547 0 8.9062-1.875 12.039-5.1836 3.1289-3.3086 4.7617-7.7578 4.5117-12.305v-91.746c0-0.75 0.60547-1.3594 1.3594-1.3594h2.7188c0.75391 0 1.3633 0.60938 1.3633 1.3594v91.746c-0.027344 5.207 2.4062 10.125 6.5664 13.266 4.1602 3.1367 9.5547 4.1328 14.559 2.6797 5.0039-1.4492 9.0312-5.1758 10.863-10.051-0.023437-0.45312-0.023437-0.91016 0-1.3633v-79.199c-2.6641 3.2305-6.6445 5.082-10.832 5.0391-3.6328 0.039062-7.1328-1.3633-9.7344-3.9062-2.5977-2.543-4.0781-6.0117-4.1172-9.6445v-58.945c0.35938-7.3633 3.5391-14.301 8.875-19.383 5.3359-5.0859 12.422-7.9219 19.789-7.9258h4.0312l-15.566-51.238c-0.12109-0.32031-0.070313-0.67969 0.13281-0.95312 0.20312-0.27344 0.53125-0.42578 0.875-0.40625h2.7188c0.87891 0.023437 1.6641 0.55469 2.0156 1.3594 0 0 4.3828 14.41 9.5234 31.188 0.089844-8.2656 4.457-15.891 11.535-20.152l6.0977-10.078-2.6719-8.7148c-2.9219-10.078-8.5156-33.402-30.23-33.402h-54.207c-20.152 0-27.305 23.227-30.23 33.402 0 0-19.195 62.773-19.246 62.824h0.003906c-2.0625 6.7773 1.7461 13.941 8.5117 16.023z"></path>
  <path d="m510.03 342.31v78.395c0 7.0938 5.75 12.844 12.848 12.844 7.0938 0 12.848-5.75 12.848-12.844v-89.176c0.23047-8.1641-2.8516-16.074-8.5469-21.93-5.6953-5.8555-13.516-9.1602-21.684-9.1562h-73.152c-13.551 0-25.945 5.5938-27.258 20.152-1.0586 11.035-1.4102 20.152-1.4102 20.152l7.457-11.285v11.539l6.9531-11.539v25.492c3.332 2.918 5.793 6.7031 7.1016 10.934 1.3086-13.199 2.3164-23.578 2.3164-23.578h0.003906c0-0.34766 0.13672-0.67969 0.38281-0.92578 0.24609-0.24609 0.57812-0.38281 0.92578-0.38281h2.7188c0.35938-0.015625 0.70312 0.11719 0.96094 0.36328 0.25781 0.24609 0.40234 0.58984 0.40234 0.94531v50.785c6.8242 0.67578 13.18 3.7773 17.914 8.7422 4.7305 4.9648 7.5273 11.461 7.8789 18.312v58.895c0.015625 3.6406-1.4414 7.1367-4.043 9.6875-2.5977 2.5508-6.1172 3.9453-9.7617 3.8633-4.1953 0.023438-8.1836-1.8242-10.883-5.0352v80.609c1.7617 4.9414 5.7656 8.7578 10.789 10.273 5.0234 1.5195 10.469 0.5625 14.672-2.5781 4.2031-3.1406 6.6641-8.0938 6.6328-13.34v-129.68c0-0.95703 0.45312-1.3086 1.3594-1.3086h2.6719c0.95703 0 1.3594 0.35156 1.3594 1.3086v129.43c0 5.9219 3.1602 11.391 8.2891 14.352 5.1289 2.9609 11.445 2.9609 16.574 0 5.1289-2.9609 8.2891-8.4297 8.2891-14.352v-219.96c0-0.34766 0.13672-0.67969 0.38281-0.92578 0.24609-0.24609 0.57812-0.38281 0.92578-0.38281h2.7227c0.35547-0.015625 0.69922 0.11719 0.95703 0.36328 0.25781 0.24609 0.40234 0.58984 0.40234 0.94531z"></path>
  <path d="m493.46 268.35c0.023438 6.543-2.5508 12.824-7.1562 17.465-4.6094 4.6367-10.875 7.2539-17.414 7.2734-6.5391 0.019531-12.82-2.5664-17.453-7.1797-4.6328-4.6133-7.2422-10.883-7.25-17.422-0.007813-6.5391 2.582-12.816 7.2031-17.441 4.6211-4.6289 10.891-7.2305 17.434-7.2305 6.5234 0 12.781 2.5898 17.402 7.1992 4.6172 4.6094 7.2188 10.863 7.2344 17.387z"></path>
  <path d="m360 268.35c0.027344 6.543-2.5469 12.824-7.1562 17.465-4.6094 4.6367-10.871 7.2539-17.414 7.2734-6.5391 0.019531-12.816-2.5664-17.449-7.1797-4.6367-4.6133-7.2422-10.883-7.2539-17.422-0.007812-6.5391 2.582-12.816 7.2031-17.441 4.6211-4.6289 10.895-7.2305 17.434-7.2305 6.5352 0 12.801 2.5977 17.422 7.2188 4.6211 4.6172 7.2148 10.883 7.2148 17.418z"></path>
  <path d="m370.62 427.36h4.1836c0.53516 0 0.98047 0.42188 1.0078 0.95703v138.5c-0.21484 3.3086 0.94922 6.5586 3.2148 8.9766 2.2695 2.418 5.4336 3.793 8.75 3.793s6.4805-1.375 8.75-3.793c2.2656-2.418 3.4297-5.668 3.2148-8.9766v-78.695c0-0.65625 0.35156-0.95703 1.0078-0.95703h3.9805c0.65625 0 1.0078 0.30078 1.0078 0.95703v78.746c0 6.5938 5.3438 11.941 11.941 11.941 6.5938 0 11.938-5.3477 11.938-11.941v-138.55c0.027344-0.53516 0.47266-0.95703 1.0078-0.95703h4.082c0.50781 0.027343 0.90625 0.44922 0.90625 0.95703v50.734c0.35937 4.8945 4.4375 8.6836 9.3477 8.6836 4.9062 0 8.9844-3.7891 9.3438-8.6836v-58.895c-0.37109-6.1406-3.0664-11.91-7.543-16.129-4.4727-4.2227-10.387-6.5781-16.539-6.5938h-55.066c-6.168-0.011719-12.105 2.3359-16.602 6.5586-4.4961 4.2227-7.207 10.004-7.582 16.164v58.895c0 5.1758 4.1953 9.3711 9.3711 9.3711 5.1758 0 9.3711-4.1953 9.3711-9.3711v-50.734c0.027344-0.51953 0.44141-0.93359 0.95703-0.95703z"></path>
  <path d="m393.6 356.07c-4.9727 2.6719-8.5273 7.3828-9.7266 12.898-1.1953 5.5156 0.078125 11.277 3.4922 15.773 3.4141 4.4922 8.625 7.2656 14.258 7.5898s11.129-1.8359 15.035-5.9062c3.9062-4.0742 5.832-9.6523 5.2734-15.27-0.55859-5.6133-3.5469-10.703-8.1797-13.926v-11.285l-5.0391 8.7656c-0.57422-0.20312-1.1641-0.35547-1.7656-0.45312v-8.3125l-4.7344 7.9102v-0.003906c-0.75391-0.046875-1.5117-0.046875-2.2656 0v-7.9062z"></path>
 </g>

      </g>
     <g id="IconSvg_iconCarrier">
      <g xmlns="http://www.w3.org/2000/svg">
  <path d="m268.45 412.64c6.7734 2.0703 13.945-1.7109 16.07-8.4648l19.195-62.574c0.33203-0.82031 1.1289-1.3594 2.0156-1.3594h2.7227c0.33984-0.019532 0.66797 0.13281 0.875 0.40625 0.20312 0.27344 0.25391 0.63281 0.13281 0.95312l-38.441 125.95c-0.18359 0.45312-0.13281 0.96875 0.14062 1.3711 0.27344 0.40625 0.73047 0.64844 1.2188 0.64453h26.855c0.35547 0 0.69531 0.14453 0.94141 0.40234 0.25 0.25781 0.37891 0.60156 0.36719 0.95703v91.344c-0.25 4.5469 1.3789 8.9961 4.5117 12.305 3.1289 3.3086 7.4844 5.1836 12.039 5.1836 4.5547 0 8.9062-1.875 12.039-5.1836 3.1289-3.3086 4.7617-7.7578 4.5117-12.305v-91.746c0-0.75 0.60547-1.3594 1.3594-1.3594h2.7188c0.75391 0 1.3633 0.60938 1.3633 1.3594v91.746c-0.027344 5.207 2.4062 10.125 6.5664 13.266 4.1602 3.1367 9.5547 4.1328 14.559 2.6797 5.0039-1.4492 9.0312-5.1758 10.863-10.051-0.023437-0.45312-0.023437-0.91016 0-1.3633v-79.199c-2.6641 3.2305-6.6445 5.082-10.832 5.0391-3.6328 0.039062-7.1328-1.3633-9.7344-3.9062-2.5977-2.543-4.0781-6.0117-4.1172-9.6445v-58.945c0.35938-7.3633 3.5391-14.301 8.875-19.383 5.3359-5.0859 12.422-7.9219 19.789-7.9258h4.0312l-15.566-51.238c-0.12109-0.32031-0.070313-0.67969 0.13281-0.95312 0.20312-0.27344 0.53125-0.42578 0.875-0.40625h2.7188c0.87891 0.023437 1.6641 0.55469 2.0156 1.3594 0 0 4.3828 14.41 9.5234 31.188 0.089844-8.2656 4.457-15.891 11.535-20.152l6.0977-10.078-2.6719-8.7148c-2.9219-10.078-8.5156-33.402-30.23-33.402h-54.207c-20.152 0-27.305 23.227-30.23 33.402 0 0-19.195 62.773-19.246 62.824h0.003906c-2.0625 6.7773 1.7461 13.941 8.5117 16.023z"></path>
  <path d="m510.03 342.31v78.395c0 7.0938 5.75 12.844 12.848 12.844 7.0938 0 12.848-5.75 12.848-12.844v-89.176c0.23047-8.1641-2.8516-16.074-8.5469-21.93-5.6953-5.8555-13.516-9.1602-21.684-9.1562h-73.152c-13.551 0-25.945 5.5938-27.258 20.152-1.0586 11.035-1.4102 20.152-1.4102 20.152l7.457-11.285v11.539l6.9531-11.539v25.492c3.332 2.918 5.793 6.7031 7.1016 10.934 1.3086-13.199 2.3164-23.578 2.3164-23.578h0.003906c0-0.34766 0.13672-0.67969 0.38281-0.92578 0.24609-0.24609 0.57812-0.38281 0.92578-0.38281h2.7188c0.35938-0.015625 0.70312 0.11719 0.96094 0.36328 0.25781 0.24609 0.40234 0.58984 0.40234 0.94531v50.785c6.8242 0.67578 13.18 3.7773 17.914 8.7422 4.7305 4.9648 7.5273 11.461 7.8789 18.312v58.895c0.015625 3.6406-1.4414 7.1367-4.043 9.6875-2.5977 2.5508-6.1172 3.9453-9.7617 3.8633-4.1953 0.023438-8.1836-1.8242-10.883-5.0352v80.609c1.7617 4.9414 5.7656 8.7578 10.789 10.273 5.0234 1.5195 10.469 0.5625 14.672-2.5781 4.2031-3.1406 6.6641-8.0938 6.6328-13.34v-129.68c0-0.95703 0.45312-1.3086 1.3594-1.3086h2.6719c0.95703 0 1.3594 0.35156 1.3594 1.3086v129.43c0 5.9219 3.1602 11.391 8.2891 14.352 5.1289 2.9609 11.445 2.9609 16.574 0 5.1289-2.9609 8.2891-8.4297 8.2891-14.352v-219.96c0-0.34766 0.13672-0.67969 0.38281-0.92578 0.24609-0.24609 0.57812-0.38281 0.92578-0.38281h2.7227c0.35547-0.015625 0.69922 0.11719 0.95703 0.36328 0.25781 0.24609 0.40234 0.58984 0.40234 0.94531z"></path>
  <path d="m493.46 268.35c0.023438 6.543-2.5508 12.824-7.1562 17.465-4.6094 4.6367-10.875 7.2539-17.414 7.2734-6.5391 0.019531-12.82-2.5664-17.453-7.1797-4.6328-4.6133-7.2422-10.883-7.25-17.422-0.007813-6.5391 2.582-12.816 7.2031-17.441 4.6211-4.6289 10.891-7.2305 17.434-7.2305 6.5234 0 12.781 2.5898 17.402 7.1992 4.6172 4.6094 7.2188 10.863 7.2344 17.387z"></path>
  <path d="m360 268.35c0.027344 6.543-2.5469 12.824-7.1562 17.465-4.6094 4.6367-10.871 7.2539-17.414 7.2734-6.5391 0.019531-12.816-2.5664-17.449-7.1797-4.6367-4.6133-7.2422-10.883-7.2539-17.422-0.007812-6.5391 2.582-12.816 7.2031-17.441 4.6211-4.6289 10.895-7.2305 17.434-7.2305 6.5352 0 12.801 2.5977 17.422 7.2188 4.6211 4.6172 7.2148 10.883 7.2148 17.418z"></path>
  <path d="m370.62 427.36h4.1836c0.53516 0 0.98047 0.42188 1.0078 0.95703v138.5c-0.21484 3.3086 0.94922 6.5586 3.2148 8.9766 2.2695 2.418 5.4336 3.793 8.75 3.793s6.4805-1.375 8.75-3.793c2.2656-2.418 3.4297-5.668 3.2148-8.9766v-78.695c0-0.65625 0.35156-0.95703 1.0078-0.95703h3.9805c0.65625 0 1.0078 0.30078 1.0078 0.95703v78.746c0 6.5938 5.3438 11.941 11.941 11.941 6.5938 0 11.938-5.3477 11.938-11.941v-138.55c0.027344-0.53516 0.47266-0.95703 1.0078-0.95703h4.082c0.50781 0.027343 0.90625 0.44922 0.90625 0.95703v50.734c0.35937 4.8945 4.4375 8.6836 9.3477 8.6836 4.9062 0 8.9844-3.7891 9.3438-8.6836v-58.895c-0.37109-6.1406-3.0664-11.91-7.543-16.129-4.4727-4.2227-10.387-6.5781-16.539-6.5938h-55.066c-6.168-0.011719-12.105 2.3359-16.602 6.5586-4.4961 4.2227-7.207 10.004-7.582 16.164v58.895c0 5.1758 4.1953 9.3711 9.3711 9.3711 5.1758 0 9.3711-4.1953 9.3711-9.3711v-50.734c0.027344-0.51953 0.44141-0.93359 0.95703-0.95703z"></path>
  <path d="m393.6 356.07c-4.9727 2.6719-8.5273 7.3828-9.7266 12.898-1.1953 5.5156 0.078125 11.277 3.4922 15.773 3.4141 4.4922 8.625 7.2656 14.258 7.5898s11.129-1.8359 15.035-5.9062c3.9062-4.0742 5.832-9.6523 5.2734-15.27-0.55859-5.6133-3.5469-10.703-8.1797-13.926v-11.285l-5.0391 8.7656c-0.57422-0.20312-1.1641-0.35547-1.7656-0.45312v-8.3125l-4.7344 7.9102v-0.003906c-0.75391-0.046875-1.5117-0.046875-2.2656 0v-7.9062z"></path>
 </g>

      </g>
      </svg>