<svg id="svg" fill="#978157" stroke="#978157" width="200" height="200" version="1.1" viewBox="144 144 512 512" xmlns="http://www.w3.org/2000/svg">
    <g id="IconSvg_bgCarrier" stroke-width="0"></g>
    <g id="IconSvg_tracerCarrier" stroke-linecap="round" stroke-linejoin="round" stroke="#CCCCCC" stroke-width="0">
      <g xmlns="http://www.w3.org/2000/svg">
  <path d="m511.3 356.82c-1.0234-3.2891-3.8828-7.9922-11.73-11.723-1.1484-0.55078-2.3711-1.0078-3.6211-1.4141 1.1992-0.36719 2.3789-0.76562 3.4922-1.2461 5.9414-2.5547 10.082-6.5742 11.656-11.324 1.1602-3.4961 0.83984-7.2188-0.89062-10.219-1.707-2.9688-4.5352-5.0273-7.9492-5.8008-3.3359-0.74609-8.8477-0.62891-16.008 4.293-1.0469 0.72656-2.0547 1.5508-3.0312 2.4336 0.28125-1.2188 0.52344-2.4453 0.66406-3.6484 0.76172-6.4219-0.65625-12.02-3.9844-15.766-4.8672-5.4805-13.512-5.5078-18.285-0.34375-2.3359 2.5273-4.9766 7.3555-4.2891 16.012 0.10156 1.2695 0.31641 2.5547 0.58984 3.8438-0.91797-0.85547-1.8555-1.6719-2.832-2.3984-5.1836-3.8711-10.746-5.4414-15.645-4.4336-3.6016 0.74219-6.6641 2.8828-8.3945 5.8789-1.7148 2.9688-2.0859 6.4375-1.0469 9.7773 1.0234 3.2891 3.8828 7.9922 11.73 11.73 1.1797 0.55859 2.4727 0.95703 3.7578 1.3711-1.25 0.37891-2.4688 0.79688-3.6289 1.2891-5.9414 2.5547-10.082 6.5742-11.664 11.332-1.1523 3.4961-0.83203 7.2148 0.89844 10.207 1.707 2.9688 4.5352 5.0273 7.9492 5.8008 0.89844 0.20312 1.9531 0.34766 3.1602 0.34766 3.2734 0 7.6172-1.0391 12.848-4.6367 1.0469-0.71875 2.0547-1.5508 3.0312-2.4297-0.28125 1.2188-0.51953 2.4375-0.66406 3.6406-0.76172 6.4219 0.65625 12.02 3.9844 15.766 2.4453 2.75 5.8281 4.332 9.2852 4.332 3.4258 0 6.6211-1.4141 8.9961-3.9883 2.3359-2.5273 4.9766-7.3555 4.2891-16.012-0.10156-1.2695-0.31641-2.5547-0.58984-3.8438 0.91797 0.85547 1.8555 1.6719 2.832 2.3984 4.1523 3.1016 8.5508 4.7344 12.664 4.7305 1.0078 0 2.0039-0.097656 2.9727-0.29688 3.6055-0.74219 6.6719-2.8828 8.3984-5.8789 1.7227-2.9648 2.0898-6.4336 1.0547-9.7812zm-40.648-6.9727c-3.3047 0-5.9805-2.6797-5.9805-5.9805 0-3.3047 2.6797-5.9805 5.9805-5.9805 3.3047 0 5.9805 2.6758 5.9805 5.9805 0 3.3086-2.6758 5.9805-5.9805 5.9805z"></path>
  <path d="m539.46 483.59c1.3711-3.1602 2.2656-8.5898-1.2461-16.535-0.51562-1.168-1.1445-2.3125-1.8242-3.4375 1.1484 0.50391 2.3008 0.97266 3.4609 1.3359 6.168 1.9414 11.93 1.5938 16.223-0.98438 3.1602-1.8945 5.3438-4.9219 5.9844-8.3281 0.64062-3.3672-0.15625-6.7656-2.2422-9.5781-2.0391-2.7422-6.293-6.2539-14.934-7.1875-1.2695-0.13672-2.5742-0.16797-3.8828-0.13672 1.0117-0.74219 1.9883-1.5117 2.8828-2.332 4.7656-4.375 7.3438-9.543 7.2656-14.551-0.11719-7.332-6.6484-12.988-13.637-12.188-3.4219 0.39453-8.5703 2.3281-13.695 9.3398-0.75 1.0273-1.4258 2.1445-2.0625 3.293-0.13672-1.25-0.31641-2.4805-0.57812-3.6641-1.4062-6.3164-4.5938-11.133-8.9609-13.562-3.2148-1.7891-6.9336-2.1602-10.195-1.0195-3.2344 1.1328-5.7773 3.5234-7.168 6.7266-1.3711 3.1602-2.2656 8.5898 1.2383 16.539 0.52734 1.1953 1.2539 2.3359 1.9531 3.4883-1.1875-0.52734-2.3945-1.0078-3.5938-1.3867-6.168-1.9414-11.93-1.5938-16.234 0.98438-3.1523 1.8945-5.3359 4.9258-5.9766 8.3242-0.64063 3.3672 0.15625 6.7656 2.2422 9.5781 0.55078 0.74219 1.2539 1.5352 2.1719 2.3242 2.4844 2.1367 6.4492 4.1797 12.762 4.8672 1.2656 0.13672 2.5703 0.16797 3.8828 0.13672-1.0117 0.74219-1.9844 1.5117-2.875 2.3281-4.7656 4.375-7.3438 9.543-7.2656 14.551 0.058594 3.6797 1.5977 7.082 4.2188 9.3398 2.6016 2.2383 5.9453 3.2461 9.4219 2.8477 3.4219-0.39453 8.5703-2.3281 13.695-9.3398 0.75-1.0273 1.4258-2.1445 2.0625-3.293 0.13672 1.25 0.31641 2.4805 0.57812 3.6641 1.125 5.0625 3.3945 9.168 6.5156 11.844 0.76562 0.65625 1.582 1.2344 2.4492 1.7148 3.2188 1.793 6.9375 2.168 10.203 1.0234 3.2188-1.1289 5.7617-3.5195 7.1602-6.7266zm-26.262-31.801c-2.5039-2.1562-2.7852-5.9297-0.62891-8.4336 2.1562-2.5039 5.9297-2.7852 8.4336-0.62891 2.5039 2.1562 2.7852 5.9297 0.62891 8.4336-2.1562 2.4961-5.9297 2.7852-8.4336 0.62891z"></path>
  <path d="m266.2 484.46c3.2656 1.1445 6.9844 0.76953 10.203-1.0234 0.86719-0.48047 1.6836-1.0586 2.4492-1.7148 3.1172-2.6797 5.3906-6.7852 6.5156-11.844 0.26172-1.1836 0.44141-2.418 0.57812-3.6641 0.63672 1.1484 1.3086 2.2656 2.0625 3.293 5.125 7.0117 10.273 8.9492 13.695 9.3398 3.4766 0.40234 6.8203-0.60938 9.4219-2.8477 2.6211-2.2578 4.1562-5.6641 4.2188-9.3398 0.082031-5.0078-2.5-10.176-7.2656-14.551-0.89062-0.82031-1.8672-1.5859-2.875-2.3281 1.3164 0.023437 2.6133 0 3.8828-0.13672 6.3125-0.67969 10.281-2.7305 12.762-4.8672 0.91016-0.78516 1.6211-1.582 2.1719-2.3242 2.0859-2.8125 2.8867-6.2188 2.2422-9.5781-0.64062-3.3945-2.8203-6.4219-5.9766-8.3242-4.2969-2.5742-10.066-2.9219-16.234-0.98438-1.2031 0.37891-2.4023 0.85547-3.5938 1.3867 0.69922-1.1484 1.4258-2.293 1.9531-3.4883 3.5078-7.9492 2.6094-13.383 1.2383-16.539-1.3906-3.2031-3.9336-5.5977-7.168-6.7266-3.2656-1.1445-6.9844-0.76953-10.195 1.0195-4.3672 2.4336-7.5586 7.25-8.9609 13.562-0.26172 1.1836-0.44141 2.418-0.57812 3.6641-0.63672-1.1484-1.3086-2.2656-2.0625-3.293-5.125-7.0117-10.273-8.9492-13.695-9.3398-6.9844-0.80078-13.523 4.8555-13.637 12.188-0.082031 5.0078 2.5 10.176 7.2656 14.551 0.89062 0.82031 1.8672 1.5859 2.8828 2.332-1.3164-0.03125-2.6211 0-3.8828 0.13672-8.6406 0.9375-12.891 4.4492-14.934 7.1875-2.0859 2.8125-2.8867 6.2188-2.2422 9.5781 0.64062 3.4023 2.8281 6.4336 5.9844 8.3281 4.293 2.5742 10.055 2.9219 16.223 0.98438 1.1602-0.36328 2.3125-0.82812 3.4609-1.3359-0.67969 1.125-1.3047 2.2656-1.8242 3.4375-3.5078 7.9453-2.6133 13.375-1.2461 16.535 1.3867 3.2109 3.9336 5.5977 7.1602 6.7266zm10.656-39.16c-2.1562-2.5039-1.875-6.2812 0.62891-8.4336 2.5039-2.1562 6.2812-1.875 8.4336 0.62891 2.1562 2.5039 1.875 6.2812-0.62891 8.4336-2.4961 2.1562-6.2773 1.875-8.4336-0.62891z"></path>
  <path d="m340.21 559.95c3.3711 0.78516 7.0273 0.019531 10.035-2.1094 0.8125-0.57031 1.5625-1.2305 2.2461-1.9648 2.8164-2.9961 4.6367-7.3242 5.2031-12.473 0.13672-1.2031 0.17969-2.4492 0.17969-3.7031 0.75 1.0781 1.543 2.1094 2.4023 3.0547 5.8438 6.4219 11.176 7.793 14.617 7.8203 3.5 0.023437 6.7227-1.3359 9.0625-3.8398 2.3633-2.5234 3.5273-6.0742 3.1875-9.7383-0.45703-4.9883-3.5703-9.8477-8.7812-13.688-0.97656-0.71875-2.0312-1.3789-3.1133-2.0039 1.3086-0.11719 2.6016-0.28125 3.8438-0.55469 6.2031-1.3555 9.9297-3.8203 12.168-6.207 0.82031-0.88281 1.4414-1.75 1.9102-2.543 1.7734-3.0195 2.2031-6.4883 1.2031-9.7656-1.0039-3.3047-3.4922-6.0859-6.832-7.6328-4.5508-2.0977-10.316-1.8242-16.242 0.76562-1.1523 0.50391-2.2969 1.1094-3.4258 1.7617 0.57422-1.2188 1.1758-2.4336 1.5664-3.6797 2.6367-8.2773 1.1602-13.582-0.53906-16.574-1.7266-3.0391-4.5156-5.1445-7.8477-5.918-3.3711-0.78516-7.0273-0.019532-10.031 2.1055-4.0859 2.8867-6.7422 8.0156-7.457 14.449-0.13672 1.2031-0.17969 2.4492-0.17969 3.7031-0.75-1.0781-1.543-2.1094-2.4023-3.0547-5.8438-6.4219-11.176-7.793-14.617-7.8203-7.0273-0.050781-12.922 6.2773-12.254 13.578 0.45703 4.9883 3.5703 9.8477 8.7812 13.688 0.97656 0.71875 2.0312 1.3789 3.1133 2.0117-1.3086 0.10938-2.6055 0.28125-3.8477 0.55469-8.4883 1.8594-12.344 5.8086-14.078 8.75-1.7734 3.0195-2.2031 6.4883-1.2031 9.7656 1.0039 3.3164 3.5 6.0898 6.8477 7.6367 4.543 2.0977 10.312 1.8242 16.238-0.76562 1.1133-0.48438 2.2109-1.0742 3.293-1.6992-0.55469 1.1875-1.0586 2.3945-1.4414 3.6133-2.6367 8.2734-1.1641 13.578 0.53906 16.57 1.7344 3.0312 4.5195 5.1289 7.8555 5.9062zm6.3984-40.078c-2.4141-2.2578-2.5352-6.0469-0.27734-8.4531 2.2578-2.4102 6.0469-2.5352 8.4531-0.27734 2.4102 2.2578 2.5352 6.0469 0.27734 8.4531-2.2617 2.4141-6.043 2.5391-8.4531 0.27734z"></path>
  <path d="m379.5 355.93c-1.0234-3.2891-3.8828-7.9922-11.73-11.723-1.1484-0.55078-2.3711-1.0078-3.6211-1.4141 1.1992-0.36719 2.3789-0.76562 3.4922-1.2461 5.9414-2.5547 10.082-6.5742 11.656-11.324 1.1602-3.4961 0.83984-7.2188-0.89062-10.219-1.707-2.9688-4.5352-5.0273-7.9492-5.8008-3.3359-0.74609-8.8477-0.62891-16.008 4.293-1.0469 0.72656-2.0547 1.5508-3.0312 2.4336 0.28125-1.2188 0.52344-2.4453 0.66406-3.6484 0.76172-6.4219-0.65625-12.02-3.9844-15.766-4.8672-5.4805-13.512-5.5078-18.285-0.34375-2.3359 2.5273-4.9766 7.3555-4.2891 16.012 0.10156 1.2695 0.31641 2.5547 0.58984 3.8438-0.91797-0.85547-1.8555-1.6719-2.832-2.3984-5.1836-3.8711-10.746-5.4414-15.645-4.4336-3.6016 0.74219-6.6641 2.8828-8.3945 5.8789-1.7148 2.9688-2.0859 6.4375-1.0469 9.7773 1.0234 3.2891 3.8828 7.9922 11.73 11.73 1.1797 0.55859 2.4727 0.95703 3.7578 1.3711-1.25 0.37891-2.4688 0.79688-3.6289 1.2891-5.9414 2.5547-10.082 6.5742-11.664 11.332-1.1523 3.4961-0.83203 7.2148 0.89844 10.207 1.707 2.9688 4.5352 5.0273 7.9492 5.8008 0.89844 0.20312 1.9531 0.34766 3.1602 0.34766 3.2734 0 7.6172-1.0391 12.848-4.6367 1.0469-0.71875 2.0547-1.5508 3.0312-2.4297-0.28125 1.2188-0.51953 2.4375-0.66406 3.6406-0.76172 6.4219 0.65625 12.02 3.9844 15.766 2.4453 2.75 5.8281 4.332 9.2852 4.332 3.4258 0 6.6211-1.4141 8.9961-3.9883 2.3359-2.5273 4.9766-7.3555 4.2891-16.012-0.10156-1.2695-0.31641-2.5547-0.58984-3.8438 0.91797 0.85547 1.8555 1.6719 2.832 2.3984 4.1523 3.1016 8.5508 4.7344 12.664 4.7305 1.0078 0 2.0039-0.097656 2.9727-0.29688 3.6055-0.74219 6.6719-2.8828 8.3984-5.8789 1.7188-2.9648 2.0898-6.4336 1.0547-9.7812zm-40.648-6.9727c-3.3047 0-5.9805-2.6797-5.9805-5.9805 0-3.3047 2.6797-5.9805 5.9805-5.9805 3.3047 0 5.9805 2.6758 5.9805 5.9805 0 3.3086-2.6797 5.9805-5.9805 5.9805z"></path>
  <path d="m446.17 426.72c-1.0234-3.2891-3.8828-7.9922-11.73-11.723-1.1484-0.55078-2.3711-1.0078-3.6211-1.4141 1.1992-0.36719 2.3789-0.76562 3.4922-1.2461 5.9414-2.5547 10.082-6.5742 11.656-11.324 1.1602-3.4961 0.83984-7.2188-0.89062-10.219-1.707-2.9688-4.5352-5.0273-7.9492-5.8008-3.3359-0.74609-8.8477-0.62891-16.008 4.293-1.0469 0.72656-2.0547 1.5508-3.0312 2.4336 0.28125-1.2188 0.52344-2.4453 0.66406-3.6484 0.76172-6.4219-0.65625-12.02-3.9844-15.766-4.8672-5.4805-13.512-5.5078-18.285-0.34375-2.3359 2.5273-4.9766 7.3555-4.2891 16.012 0.10156 1.2695 0.31641 2.5547 0.58984 3.8438-0.91797-0.85547-1.8555-1.6719-2.832-2.3984-5.1836-3.8711-10.746-5.4414-15.645-4.4336-3.6016 0.74219-6.6641 2.8828-8.3945 5.8789-1.7148 2.9688-2.0859 6.4375-1.0469 9.7773 1.0234 3.2891 3.8828 7.9922 11.73 11.73 1.1797 0.55859 2.4727 0.95703 3.7578 1.3711-1.25 0.37891-2.4688 0.79687-3.6289 1.2891-5.9414 2.5547-10.082 6.5742-11.664 11.332-1.1523 3.4961-0.83203 7.2148 0.89844 10.207 1.707 2.9688 4.5352 5.0273 7.9492 5.8008 0.89844 0.20312 1.9531 0.34766 3.1602 0.34766 3.2734 0 7.6172-1.0391 12.848-4.6367 1.0469-0.71875 2.0547-1.5508 3.0312-2.4297-0.28125 1.2188-0.51953 2.4375-0.66406 3.6406-0.76172 6.4219 0.65625 12.02 3.9844 15.766 2.4453 2.75 5.8281 4.332 9.2852 4.332 3.4258 0 6.6211-1.4141 8.9961-3.9883 2.3359-2.5273 4.9766-7.3555 4.2891-16.012-0.10156-1.2695-0.31641-2.5547-0.58984-3.8438 0.91797 0.85547 1.8555 1.6719 2.832 2.3984 4.1523 3.1016 8.5508 4.7344 12.664 4.7305 1.0078 0 2.0039-0.097656 2.9727-0.29688 3.6055-0.74219 6.6719-2.8828 8.3984-5.8789 1.7188-2.9609 2.0938-6.4336 1.0547-9.7812zm-40.648-6.9727c-3.3047 0-5.9805-2.6797-5.9805-5.9805 0-3.3047 2.6797-5.9805 5.9805-5.9805 3.3047 0 5.9805 2.6758 5.9805 5.9805 0 3.3086-2.6797 5.9805-5.9805 5.9805z"></path>
  <path d="m492.36 521.32c-1.75-2.9688-5.6055-6.8906-14.09-8.7344-1.2461-0.27344-2.5391-0.4375-3.8477-0.55078 1.082-0.62891 2.1406-1.2891 3.1133-2.0117 5.1992-3.8398 8.3125-8.707 8.7617-13.688 0.33203-3.668-0.83203-7.2188-3.2031-9.7422-2.3438-2.5-5.5625-3.8594-9.0625-3.8281-3.4141 0.035156-8.7617 1.4062-14.605 7.8359-0.85547 0.94141-1.6484 1.9805-2.3984 3.0586-0.003906-1.2539-0.050781-2.5-0.1875-3.7031-0.72656-6.4297-3.3867-11.559-7.4805-14.438-5.9922-4.2266-14.414-2.2734-17.879 3.8438-1.6992 2.9922-3.1641 8.2969-0.51953 16.57 0.38672 1.2148 0.89062 2.418 1.4492 3.6055-1.0898-0.625-2.1914-1.2031-3.3008-1.6914-5.9297-2.5859-11.703-2.8477-16.242-0.74609-3.3398 1.543-5.8281 4.3281-6.832 7.6445-0.99219 3.2812-0.55859 6.7461 1.2148 9.7578 1.75 2.9688 5.6055 6.8906 14.098 8.7422 1.2734 0.27734 2.6289 0.36328 3.9688 0.47266-1.1289 0.64844-2.2266 1.3359-3.2383 2.0859-5.1992 3.8398-8.3125 8.707-8.7656 13.695-0.32812 3.668 0.83984 7.2148 3.2031 9.7344 2.3438 2.5 5.5625 3.8594 9.0625 3.8281 0.92188-0.011719 1.9844-0.10938 3.1523-0.38281 3.1875-0.74609 7.1797-2.75 11.453-7.4453 0.85547-0.94141 1.6484-1.9805 2.3984-3.0586 0.003906 1.2539 0.050781 2.4922 0.1875 3.6992 0.72656 6.4297 3.3867 11.559 7.4805 14.438 3.0078 2.1211 6.6641 2.8867 10.031 2.0977 3.3359-0.78125 6.1211-2.8906 7.8477-5.9414 1.6992-2.9922 3.1641-8.2969 0.51953-16.57-0.38672-1.2148-0.89062-2.418-1.4492-3.6055 1.0898 0.625 2.1914 1.2031 3.3008 1.6914 4.75 2.0742 9.4062 2.6562 13.41 1.7148 0.98438-0.23047 1.9297-0.55078 2.8281-0.96875 3.3438-1.5469 5.8359-4.332 6.8359-7.6445 0.99219-3.2891 0.55859-6.75-1.2148-9.7656zm-41.168 2.4883c-3.2148 0.75391-6.4336-1.2383-7.1875-4.457-0.75391-3.2148 1.2383-6.4336 4.457-7.1875 3.2148-0.75391 6.4336 1.2383 7.1875 4.457s-1.2422 6.4375-4.457 7.1875z"></path>
  <path d="m263.98 342.41c-2.0117-2.7969-6.2188-6.3477-14.836-7.4062-1.2656-0.15625-2.5703-0.20312-3.8828-0.19531 1.0234-0.72656 2.0156-1.4805 2.918-2.2891 4.8281-4.3008 7.4805-9.4297 7.4727-14.434-0.003906-3.6836-1.4922-7.1133-4.0859-9.4062-2.5586-2.2734-5.8906-3.332-9.375-2.9844-3.3945 0.34766-8.5938 2.2031-13.824 9.1406-0.76563 1.0195-1.4609 2.125-2.1055 3.2695-0.12109-1.25-0.27734-2.4844-0.52344-3.668-1.3164-6.332-4.4336-11.195-8.7695-13.695-6.3516-3.6562-14.559-0.94141-17.453 5.4648-1.4141 3.1406-2.3867 8.5547 1.0078 16.547 0.5 1.1758 1.1094 2.3242 1.7734 3.457-1.1445-0.52344-2.293-0.99609-3.4414-1.3789-6.1406-2.0312-11.914-1.7578-16.242 0.75-3.1836 1.8438-5.4102 4.8477-6.1016 8.2383-0.68359 3.3555 0.066406 6.7656 2.1055 9.6016 2.0117 2.7969 6.2188 6.3477 14.836 7.4062 1.293 0.16016 2.6484 0.12109 3.9961 0.10938-1.0625 0.75-2.0898 1.5352-3.0312 2.3711-4.8281 4.3008-7.4805 9.4297-7.4727 14.445 0.011719 3.6836 1.4961 7.1055 4.0859 9.3945 2.5586 2.2734 5.8906 3.332 9.375 2.9844 0.91797-0.089844 1.9648-0.29297 3.1094-0.67578 3.1016-1.0391 6.8984-3.3945 10.715-8.4688 0.76562-1.0195 1.457-2.1211 2.1055-3.2656 0.12109 1.25 0.27734 2.4805 0.52344 3.668 1.3164 6.332 4.4336 11.195 8.7695 13.695 3.1875 1.832 6.9023 2.2617 10.184 1.1641 3.25-1.082 5.8281-3.4414 7.2695-6.6367 1.4141-3.1406 2.3867-8.5547-1.0078-16.547-0.5-1.1758-1.1094-2.3242-1.7734-3.457 1.1445 0.52344 2.293 0.99609 3.4414 1.3789 4.9219 1.6328 9.6133 1.7852 13.512 0.47266 0.95703-0.31641 1.875-0.72656 2.7266-1.2227 3.1875-1.8438 5.4141-4.8477 6.1016-8.2383 0.6875-3.3398-0.0625-6.75-2.1016-9.5898zm-40.766 6.2617c-3.1328 1.0469-6.5195-0.64453-7.5664-3.7773-1.0469-3.1328 0.64453-6.5195 3.7773-7.5664 3.1328-1.0469 6.5195 0.64453 7.5664 3.7773 1.0469 3.1328-0.64063 6.5195-3.7773 7.5664z"></path>
  <path d="m613.56 367.2c-0.023438-3.4453-1.4062-8.7695-7.8281-14.617-0.94141-0.85547-1.9805-1.6523-3.0586-2.4023 1.2539-0.003906 2.5-0.046875 3.7031-0.17969 6.4219-0.71875 11.559-3.375 14.438-7.4648 2.1211-3.0078 2.8984-6.6641 2.1055-10.035-0.77734-3.3359-2.8828-6.125-5.9297-7.8477-2.9727-1.6758-8.2891-3.168-16.566-0.52734-1.2148 0.38672-2.418 0.89062-3.6055 1.4453 0.625-1.0898 1.2109-2.1875 1.6914-3.293 2.5898-5.9297 2.8555-11.699 0.75391-16.242-3.0742-6.6562-11.34-9.1836-17.402-5.6211-2.9688 1.7422-6.8984 5.5977-8.7422 14.086-0.27344 1.2461-0.4375 2.5391-0.55078 3.8477-0.62891-1.082-1.2891-2.1406-2.0117-3.1172-3.8398-5.2109-8.707-8.3242-13.688-8.7773-3.6641-0.33594-7.2148 0.83203-9.7383 3.1992-2.5 2.3438-3.8594 5.5586-3.8359 9.0547 0.023437 3.4453 1.4062 8.7695 7.8281 14.621 0.96875 0.875 2.0898 1.6328 3.1992 2.3984-1.3047 0-2.5938 0.046875-3.8477 0.1875-6.4219 0.71875-11.559 3.375-14.445 7.4648-2.1211 3.0117-2.8828 6.6641-2.0977 10.031 0.77734 3.3359 2.8828 6.125 5.9297 7.8477 0.80078 0.45312 1.7734 0.89844 2.9219 1.2461 3.1328 0.94531 7.5938 1.2148 13.637-0.71484 1.2148-0.38672 2.418-0.89062 3.6055-1.4453-0.625 1.0898-1.2031 2.1875-1.6875 3.293-2.5898 5.9297-2.8555 11.699-0.75391 16.242 1.543 3.3398 4.3281 5.8359 7.6328 6.8359 3.2812 0.99219 6.7461 0.5625 9.7695-1.2148 2.9688-1.7422 6.8984-5.5977 8.7422-14.086 0.27344-1.2461 0.4375-2.5391 0.55078-3.8477 0.62891 1.082 1.2891 2.1406 2.0117 3.1172 3.0742 4.1758 6.8125 7.0078 10.75 8.1953 0.96094 0.29297 1.9453 0.48828 2.9336 0.57812 3.668 0.33594 7.2188-0.82812 9.7422-3.1953 2.5078-2.3477 3.8711-5.5625 3.8438-9.0625zm-36.883-18.449c-3.1641-0.95703-4.9492-4.2969-3.9883-7.457 0.95703-3.1641 4.2969-4.9492 7.457-3.9883 3.1641 0.95703 4.9492 4.2969 3.9883 7.457-0.95703 3.1562-4.2969 4.9453-7.457 3.9883z"></path>
  <path d="m591.71 252.25c-1.0234-3.2891-3.8828-7.9922-11.73-11.723-1.1484-0.55078-2.3711-1.0078-3.6211-1.4141 1.1992-0.36719 2.3789-0.76562 3.4922-1.2461 5.9414-2.5547 10.082-6.5742 11.656-11.324 1.1602-3.4961 0.83984-7.2188-0.89062-10.219-1.707-2.9688-4.5352-5.0273-7.9492-5.8008-3.3359-0.74609-8.8477-0.62891-16.008 4.293-1.0469 0.72656-2.0547 1.5508-3.0312 2.4336 0.28125-1.2188 0.52344-2.4453 0.66406-3.6484 0.76172-6.4219-0.65625-12.02-3.9844-15.766-4.8672-5.4805-13.512-5.5078-18.285-0.34375-2.3359 2.5273-4.9766 7.3555-4.2891 16.012 0.10156 1.2695 0.31641 2.5547 0.58984 3.8438-0.91797-0.85547-1.8555-1.6719-2.832-2.3984-5.1836-3.8711-10.746-5.4414-15.645-4.4336-3.6016 0.74219-6.6641 2.8828-8.3945 5.8789-1.7148 2.9688-2.0859 6.4375-1.0469 9.7773 1.0234 3.2891 3.8828 7.9922 11.73 11.73 1.1797 0.55859 2.4727 0.95703 3.7578 1.3711-1.25 0.37891-2.4688 0.79687-3.6289 1.2891-5.9414 2.5547-10.082 6.5742-11.664 11.332-1.1523 3.4961-0.83203 7.2148 0.89844 10.207 1.707 2.9688 4.5352 5.0273 7.9492 5.8008 0.89844 0.20312 1.9531 0.34766 3.1602 0.34766 3.2734 0 7.6172-1.0391 12.848-4.6367 1.0469-0.71875 2.0547-1.5508 3.0312-2.4297-0.28125 1.2188-0.51953 2.4375-0.66406 3.6406-0.76172 6.4219 0.65625 12.02 3.9844 15.766 2.4453 2.75 5.8281 4.332 9.2852 4.332 3.4258 0 6.6211-1.4141 8.9961-3.9883 2.3359-2.5273 4.9766-7.3555 4.2891-16.012-0.10156-1.2695-0.31641-2.5547-0.58984-3.8438 0.91797 0.85547 1.8555 1.6719 2.832 2.3984 4.1523 3.1016 8.5508 4.7344 12.664 4.7305 1.0078 0 2.0039-0.097656 2.9727-0.29688 3.6055-0.74219 6.6719-2.8828 8.3984-5.8789 1.7266-2.9648 2.0938-6.4336 1.0547-9.7812zm-40.645-6.9727c-3.3047 0-5.9805-2.6797-5.9805-5.9805 0-3.3047 2.6797-5.9805 5.9805-5.9805 3.3047 0 5.9805 2.6758 5.9805 5.9805-0.003907 3.3047-2.6758 5.9805-5.9805 5.9805z"></path>
  <path d="m289.19 252.25c-1.0234-3.2891-3.8828-7.9922-11.73-11.723-1.1484-0.55078-2.3711-1.0078-3.6211-1.4141 1.1992-0.36719 2.3789-0.76562 3.4922-1.2461 5.9414-2.5547 10.082-6.5742 11.656-11.324 1.1602-3.4961 0.83984-7.2188-0.89062-10.219-1.707-2.9688-4.5352-5.0273-7.9492-5.8008-3.3359-0.74609-8.8477-0.62891-16.008 4.293-1.0469 0.72656-2.0547 1.5508-3.0312 2.4336 0.28125-1.2188 0.52344-2.4453 0.66406-3.6484 0.76172-6.4219-0.65625-12.02-3.9844-15.766-4.8672-5.4805-13.512-5.5078-18.285-0.34375-2.3359 2.5273-4.9766 7.3555-4.2891 16.012 0.10156 1.2695 0.31641 2.5547 0.58984 3.8438-0.91797-0.85547-1.8555-1.6719-2.832-2.3984-5.1836-3.8711-10.746-5.4414-15.645-4.4336-3.6016 0.74219-6.6641 2.8828-8.3945 5.8789-1.7148 2.9688-2.0859 6.4375-1.0469 9.7773 1.0234 3.2891 3.8828 7.9922 11.73 11.73 1.1797 0.55859 2.4727 0.95703 3.7578 1.3711-1.25 0.37891-2.4688 0.79687-3.6289 1.2891-5.9414 2.5547-10.082 6.5742-11.664 11.332-1.1523 3.4961-0.83203 7.2148 0.89844 10.207 1.707 2.9688 4.5352 5.0273 7.9492 5.8008 0.89844 0.20312 1.9531 0.34766 3.1602 0.34766 3.2734 0 7.6172-1.0391 12.848-4.6367 1.0469-0.71875 2.0547-1.5508 3.0312-2.4297-0.28125 1.2188-0.51953 2.4375-0.66406 3.6406-0.76172 6.4219 0.65625 12.02 3.9844 15.766 2.4453 2.75 5.8281 4.332 9.2852 4.332 3.4258 0 6.6211-1.4141 8.9961-3.9883 2.3359-2.5273 4.9766-7.3555 4.2891-16.012-0.10156-1.2695-0.31641-2.5547-0.58984-3.8438 0.91797 0.85547 1.8555 1.6719 2.832 2.3984 4.1523 3.1016 8.5508 4.7344 12.664 4.7305 1.0078 0 2.0039-0.097656 2.9727-0.29688 3.6055-0.74219 6.6719-2.8828 8.3984-5.8789 1.7188-2.9648 2.0898-6.4336 1.0547-9.7812zm-40.652-6.9727c-3.3047 0-5.9805-2.6797-5.9805-5.9805 0-3.3047 2.6797-5.9805 5.9805-5.9805 3.3047 0 5.9805 2.6758 5.9805 5.9805 0.003906 3.3047-2.6758 5.9805-5.9805 5.9805z"></path>
  <path d="m441.2 247.34c-2.5352-2.3281-7.375-4.9531-16.031-4.2383-1.2695 0.10547-2.5586 0.32422-3.8438 0.59375 0.85156-0.92187 1.6719-1.8594 2.3945-2.832 3.8555-5.1953 5.4102-10.75 4.3828-15.652-0.75391-3.6055-2.9023-6.6602-5.9102-8.3828-2.9688-1.707-6.4453-2.0664-9.7852-1.0195-3.2539 1.0312-7.9648 3.8984-11.684 11.754-0.54297 1.1523-0.99609 2.3789-1.4023 3.6289-0.36719-1.1992-0.77734-2.3711-1.2578-3.4883-2.5703-5.9336-6.6094-10.066-11.371-11.629-6.9609-2.293-14.449 2.0352-15.977 8.8984-0.75 3.3594-0.60547 8.8633 4.3438 15.996 0.72656 1.0469 1.5586 2.0508 2.4375 3.0273-1.2227-0.27734-2.4492-0.51562-3.6523-0.65625-6.4297-0.74219-12.02 0.69531-15.75 4.0312-2.7461 2.4531-4.3125 5.8438-4.3008 9.3047 0.011719 3.4258 1.4375 6.6133 4.0117 8.9766 2.5352 2.3281 7.375 4.9531 16.031 4.2422 1.3008-0.10547 2.6211-0.41797 3.9336-0.70703-0.89062 0.95312-1.7383 1.9297-2.4883 2.9414-3.8555 5.1953-5.4102 10.75-4.3867 15.66 0.76172 3.6016 2.9062 6.6562 5.9062 8.375 2.9688 1.707 6.4453 2.0664 9.7852 1.0195 0.875-0.27734 1.8633-0.68359 2.9062-1.2891 2.832-1.6484 6.0664-4.7266 8.7773-10.465 0.54297-1.1523 0.99609-2.3711 1.4023-3.6211 0.36719 1.1992 0.77734 2.3711 1.2578 3.4805 2.5703 5.9336 6.6094 10.066 11.371 11.629 3.4961 1.1484 7.2188 0.8125 10.207-0.92578 2.9609-1.7227 5.0117-4.5547 5.7734-7.9688 0.75-3.3594 0.60547-8.8633-4.3438-15.996-0.72656-1.0469-1.5586-2.0508-2.4375-3.0273 1.2227 0.27734 2.4492 0.51562 3.6523 0.65625 5.1484 0.59766 9.7734-0.20703 13.324-2.2773 0.87109-0.50391 1.6875-1.0898 2.418-1.75 2.7461-2.4531 4.3164-5.8438 4.3008-9.3047 0.003906-3.4297-1.4219-6.6172-3.9961-8.9844zm-38.648 14.402c-2.8555 1.6641-6.5195 0.69141-8.1758-2.168-1.6641-2.8555-0.69141-6.5195 2.168-8.1758 2.8555-1.6562 6.5156-0.69141 8.1758 2.168 1.6562 2.8555 0.69141 6.5195-2.168 8.1758z"></path>
  <path d="m467.39 203.73s10.469 1.2461 21.746 6.3828c5.125 2.332 9.5156 5.0625 12.801 7.3555-2.2617-5.2109-8.5938-17.391-20.164-22.668-14.906-6.7969-32.832 0.51953-32.832 0.51953s6.2422 18.324 21.148 25.121c11.566 5.2734 24.918 2.0547 30.336 0.34766-3.8828-0.97656-8.8281-2.5-13.949-4.8359-11.277-5.1367-19.086-12.223-19.086-12.223z"></path>
  <path d="m472.56 251.41s7.5781-7.332 18.688-12.82c5.043-2.4922 9.9414-4.1758 13.789-5.2734-5.4648-1.5352-18.914-4.3281-30.309 1.3086-14.688 7.2656-20.344 25.781-20.344 25.781s18.148 6.7422 32.832-0.52344c11.395-5.6367 17.336-18.016 19.438-23.293-3.2109 2.3945-7.5156 5.2656-12.559 7.7578-11.109 5.4922-21.535 7.0625-21.535 7.0625z"></path>
  <path d="m336.73 202.35s10.047 3.1992 20.148 10.375c4.5898 3.2578 8.3867 6.7695 11.18 9.6445-1.2383-5.543-5.1602-18.703-15.523-26.066-13.355-9.4883-32.34-5.6914-32.34-5.6914s2.6719 19.176 16.027 28.66c10.367 7.3594 24.082 6.7266 29.727 6.0703-3.6328-1.6914-8.1953-4.1211-12.785-7.3789-10.102-7.1797-16.434-15.613-16.434-15.613z"></path>
  <path d="m294.98 292.81s-10.133-2.9219-20.43-9.8125c-4.6758-3.1328-8.5703-6.5391-11.441-9.332 1.3906 5.5078 5.668 18.555 16.234 25.629 13.613 9.1133 32.484 4.7969 32.484 4.7969s-3.1992-19.094-16.812-28.207c-10.566-7.0742-24.258-6.0625-29.883-5.25 3.6797 1.5938 8.3086 3.8945 12.984 7.0234 10.301 6.8945 16.863 15.152 16.863 15.152z"></path>
  <path d="m344.98 432.95s-4.8203-9.375-6.8633-21.598c-0.92578-5.5508-1.1172-10.723-1.0547-14.727-3.0547 4.7852-9.6172 16.848-7.5234 29.387 2.6992 16.156 18.781 26.938 18.781 26.938s11.707-15.422 9.0078-31.578c-2.0977-12.539-12.223-21.816-16.668-25.352 1.3594 3.7617 2.8633 8.7148 3.7891 14.27 2.0469 12.223 0.53125 22.66 0.53125 22.66z"></path>
  <path d="m386.78 471.14s10.348 2.0312 21.199 8.0117c4.9336 2.7148 9.1055 5.7734 12.207 8.3047-1.8633-5.3672-7.2539-17.992-18.391-24.129-14.348-7.9062-32.777-1.9688-32.777-1.9688s4.8359 18.746 19.191 26.648c11.141 6.1328 24.691 3.9414 30.223 2.6445-3.7969-1.2656-8.6133-3.1602-13.543-5.875-10.863-5.9805-18.109-13.637-18.109-13.637z"></path>
  <path d="m464.48 420.9s4.1406-9.6992 12.254-19.062c3.6836-4.2578 7.543-7.7031 10.664-10.207-5.6328 0.70703-19.109 3.3438-27.426 12.965-10.723 12.391-8.7578 31.648-8.7578 31.648s19.34-0.82812 30.062-13.215c8.3164-9.6172 8.9922-23.332 8.8828-29.008-2.0312 3.4492-4.8867 7.7656-8.5703 12.02-8.1094 9.3633-17.109 14.859-17.109 14.859z"></path>
  <path d="m407.41 341.45s-6.7266-8.1211-11.352-19.613c-2.1016-5.2227-3.4023-10.227-4.2031-14.152-1.9492 5.332-5.7617 18.523-1.0195 30.32 6.1172 15.199 24.141 22.262 24.141 22.262s8.1133-17.578 1.9961-32.777c-4.7461-11.793-16.637-18.672-21.734-21.164 2.1406 3.3867 4.6719 7.8945 6.7695 13.121 4.6328 11.488 5.4023 22.004 5.4023 22.004z"></path>
  <path d="m321.31 257.24s6.7617-8.0898 17.227-14.727c4.7578-3.0117 9.4414-5.2031 13.156-6.6992-5.5977-0.94531-19.266-2.3008-30 4.5039-13.836 8.7695-17.508 27.781-17.508 27.781s18.762 4.7852 32.598-3.9883c10.734-6.8125 15.34-19.75 16.867-25.215-2.9375 2.7188-6.918 6.0273-11.668 9.043-10.469 6.6367-20.672 9.3008-20.672 9.3008z"></path>
  <path d="m523.84 291.96s-9.4766 4.625-21.734 6.4141c-5.5703 0.8125-10.742 0.89844-14.746 0.75 4.7266 3.1484 16.645 9.9648 29.227 8.1328 16.211-2.3633 27.32-18.219 27.32-18.219s-15.176-12.02-31.387-9.6562c-12.582 1.832-22.062 11.77-25.688 16.137 3.793-1.2852 8.7773-2.6797 14.344-3.4922 12.262-1.793 22.664-0.066406 22.664-0.066406z"></path>
  <path d="m527.3 371.41s6.9688 7.9141 11.93 19.266c2.2578 5.1602 3.7031 10.121 4.6211 14.02 1.7891-5.3867 5.2109-18.688 0.11719-30.34-6.5664-15.008-24.793-21.531-24.793-21.531s-7.582 17.816-1.0195 32.824c5.0938 11.648 17.18 18.168 22.355 20.512-2.2422-3.3203-4.9023-7.7539-7.1602-12.914-4.9688-11.348-6.0508-21.836-6.0508-21.836z"></path>
  <path d="m281.46 366.45s-1.3789 10.453-6.6602 21.66c-2.3984 5.0938-5.1875 9.4531-7.5234 12.699 5.2344-2.1953 17.504-8.3672 22.922-19.871 6.9883-14.816-0.089844-32.84-0.089844-32.84s-18.402 6.0039-25.391 20.824c-5.4219 11.504-2.3789 24.895-0.74219 30.328 1.0273-3.8711 2.6133-8.7969 5.0117-13.887 5.2852-11.195 12.473-18.914 12.473-18.914z"></path>
  <path d="m404.39 593.26s3.2891-10.02 10.555-20.059c3.3008-4.5586 6.8477-8.3281 9.7422-11.094-5.5508 1.1875-18.746 4.9883-26.203 15.285-9.6094 13.27-5.9844 32.289-5.9844 32.289s19.199-2.5 28.805-15.77c7.457-10.297 6.9414-24.023 6.3398-29.668-1.7227 3.6133-4.1953 8.1602-7.4961 12.723-7.2695 10.039-15.758 16.293-15.758 16.293z"></path>
  <path d="m184.49 286.1s-0.26172-10.539 3.2148-22.434c1.582-5.4023 3.6562-10.141 5.457-13.719-4.832 2.9844-15.992 10.988-19.559 23.191-4.6016 15.723 5.1953 32.426 5.1953 32.426s17.246-8.793 21.844-24.516c3.5664-12.203-1.5234-24.957-3.9805-30.074-0.41406 3.9844-1.2148 9.0938-2.7969 14.496-3.4727 11.887-9.375 20.629-9.375 20.629z"></path>
  <path d="m610.82 274.68s4.1016 9.7148 5.2109 22.059c0.50391 5.6055 0.30078 10.777-0.058594 14.762 3.4062-4.543 10.863-16.07 9.7227-28.738-1.4727-16.32-16.691-28.277-16.691-28.277s-12.836 14.488-11.371 30.809c1.1367 12.664 10.539 22.676 14.699 26.535-1.0742-3.8594-2.1953-8.9062-2.6992-14.516-1.1094-12.34 1.1875-22.633 1.1875-22.633z"></path>
  <path d="m588.89 400.89s-7.7773 7.1133-19.035 12.297c-5.1133 2.3516-10.051 3.8945-13.93 4.8867 5.4219 1.6875 18.781 4.8516 30.336-0.46484 14.883-6.8516 20.332-25.332 20.332-25.332s-17.23-7.1094-32.113-0.25781c-11.551 5.3164-17.836 17.527-20.082 22.742 3.2734-2.3008 7.6562-5.0547 12.773-7.4062 11.25-5.1797 21.719-6.4648 21.719-6.4648z"></path>
  <path d="m299.97 192.89c0 4.4219-3.5859 8.0078-8.0078 8.0078-4.418 0-8.0039-3.5859-8.0039-8.0078 0-4.418 3.5859-8.0039 8.0039-8.0039 4.4219 0 8.0078 3.5859 8.0078 8.0039"></path>
  <path d="m284.8 324.35c0 4.4219-3.582 8.0039-8.0039 8.0039s-8.0039-3.582-8.0039-8.0039c0-4.4219 3.582-8.0039 8.0039-8.0039s8.0039 3.582 8.0039 8.0039"></path>
  <path d="m461.77 283.9c0 4.418-3.5859 8.0039-8.0039 8.0039-4.4219 0-8.0078-3.5859-8.0078-8.0039 0-4.4219 3.5859-8.0078 8.0078-8.0078 4.418 0 8.0039 3.5859 8.0039 8.0078"></path>
  <path d="m578.06 288.96c0 4.4219-3.582 8.0078-8.0039 8.0078-4.4219 0-8.0039-3.5859-8.0039-8.0078 0-4.418 3.582-8.0039 8.0039-8.0039 4.4219 0 8.0039 3.5859 8.0039 8.0039"></path>
  <path d="m461.77 460.87c0 4.4219-3.5859 8.0078-8.0039 8.0078-4.4219 0-8.0078-3.5859-8.0078-8.0078 0-4.418 3.5859-8.0039 8.0078-8.0039 4.418 0 8.0039 3.5859 8.0039 8.0039"></path>
  <path d="m385.92 572.1c0 4.418-3.5859 8.0039-8.0039 8.0039-4.4219 0-8.0078-3.5859-8.0078-8.0039 0-4.4219 3.5859-8.0078 8.0078-8.0078 4.418 0 8.0039 3.5859 8.0039 8.0078"></path>
  <path d="m302.62 501.32c0 3.0938-2.5078 5.6016-5.6016 5.6016s-5.6016-2.5078-5.6016-5.6016c0-3.0977 2.5078-5.6055 5.6016-5.6055s5.6016 2.5078 5.6016 5.6055"></path>
  <path d="m403.75 531.65c0 3.0977-2.5078 5.6055-5.6016 5.6055s-5.6016-2.5078-5.6016-5.6055c0-3.0938 2.5078-5.6016 5.6016-5.6016s5.6016 2.5078 5.6016 5.6016"></path>
  <path d="m514.98 506.37c0 3.0977-2.5078 5.6055-5.6055 5.6055-3.0938 0-5.6016-2.5078-5.6016-5.6055 0-3.0938 2.5078-5.6016 5.6016-5.6016 3.0977 0 5.6055 2.5078 5.6055 5.6016"></path>
  <path d="m530.15 334.46c0 3.0938-2.5078 5.6016-5.6016 5.6016-3.0977 0-5.6055-2.5078-5.6055-5.6016 0-3.0977 2.5078-5.6055 5.6055-5.6055 3.0938 0 5.6016 2.5078 5.6016 5.6055"></path>
  <path d="m348.12 278.85c0 3.0938-2.5078 5.6016-5.6016 5.6016s-5.6016-2.5078-5.6016-5.6016 2.5078-5.6016 5.6016-5.6016 5.6016 2.5078 5.6016 5.6016"></path>
  <path d="m226.78 283.9c0 3.0938-2.5078 5.6016-5.6016 5.6016s-5.6016-2.5078-5.6016-5.6016c0-3.0977 2.5078-5.6055 5.6016-5.6055s5.6016 2.5078 5.6016 5.6055"></path>
  <path d="m459.36 228.29c0 3.0938-2.5078 5.6016-5.6016 5.6016-3.0977 0-5.6055-2.5078-5.6055-5.6016s2.5078-5.6016 5.6055-5.6016c3.0938 0 5.6016 2.5078 5.6016 5.6016"></path>
  <path d="m317.79 223.23c0 3.0938-2.5078 5.6016-5.6016 5.6016-3.0977 0-5.6055-2.5078-5.6055-5.6016s2.5078-5.6016 5.6055-5.6016c3.0938 0 5.6016 2.5078 5.6016 5.6016"></path>
  <path d="m520.04 192.89c0 3.0977-2.5078 5.6055-5.6016 5.6055s-5.6016-2.5078-5.6016-5.6055c0-3.0938 2.5078-5.6016 5.6016-5.6016s5.6016 2.5078 5.6016 5.6016"></path>
  <path d="m229.18 415.36c0 4.4219-3.5859 8.0039-8.0078 8.0039s-8.0039-3.582-8.0039-8.0039 3.582-8.0039 8.0039-8.0039 8.0078 3.582 8.0078 8.0039"></path>
 </g>

      </g>
     <g id="IconSvg_iconCarrier">
      <g xmlns="http://www.w3.org/2000/svg">
  <path d="m511.3 356.82c-1.0234-3.2891-3.8828-7.9922-11.73-11.723-1.1484-0.55078-2.3711-1.0078-3.6211-1.4141 1.1992-0.36719 2.3789-0.76562 3.4922-1.2461 5.9414-2.5547 10.082-6.5742 11.656-11.324 1.1602-3.4961 0.83984-7.2188-0.89062-10.219-1.707-2.9688-4.5352-5.0273-7.9492-5.8008-3.3359-0.74609-8.8477-0.62891-16.008 4.293-1.0469 0.72656-2.0547 1.5508-3.0312 2.4336 0.28125-1.2188 0.52344-2.4453 0.66406-3.6484 0.76172-6.4219-0.65625-12.02-3.9844-15.766-4.8672-5.4805-13.512-5.5078-18.285-0.34375-2.3359 2.5273-4.9766 7.3555-4.2891 16.012 0.10156 1.2695 0.31641 2.5547 0.58984 3.8438-0.91797-0.85547-1.8555-1.6719-2.832-2.3984-5.1836-3.8711-10.746-5.4414-15.645-4.4336-3.6016 0.74219-6.6641 2.8828-8.3945 5.8789-1.7148 2.9688-2.0859 6.4375-1.0469 9.7773 1.0234 3.2891 3.8828 7.9922 11.73 11.73 1.1797 0.55859 2.4727 0.95703 3.7578 1.3711-1.25 0.37891-2.4688 0.79688-3.6289 1.2891-5.9414 2.5547-10.082 6.5742-11.664 11.332-1.1523 3.4961-0.83203 7.2148 0.89844 10.207 1.707 2.9688 4.5352 5.0273 7.9492 5.8008 0.89844 0.20312 1.9531 0.34766 3.1602 0.34766 3.2734 0 7.6172-1.0391 12.848-4.6367 1.0469-0.71875 2.0547-1.5508 3.0312-2.4297-0.28125 1.2188-0.51953 2.4375-0.66406 3.6406-0.76172 6.4219 0.65625 12.02 3.9844 15.766 2.4453 2.75 5.8281 4.332 9.2852 4.332 3.4258 0 6.6211-1.4141 8.9961-3.9883 2.3359-2.5273 4.9766-7.3555 4.2891-16.012-0.10156-1.2695-0.31641-2.5547-0.58984-3.8438 0.91797 0.85547 1.8555 1.6719 2.832 2.3984 4.1523 3.1016 8.5508 4.7344 12.664 4.7305 1.0078 0 2.0039-0.097656 2.9727-0.29688 3.6055-0.74219 6.6719-2.8828 8.3984-5.8789 1.7227-2.9648 2.0898-6.4336 1.0547-9.7812zm-40.648-6.9727c-3.3047 0-5.9805-2.6797-5.9805-5.9805 0-3.3047 2.6797-5.9805 5.9805-5.9805 3.3047 0 5.9805 2.6758 5.9805 5.9805 0 3.3086-2.6758 5.9805-5.9805 5.9805z"></path>
  <path d="m539.46 483.59c1.3711-3.1602 2.2656-8.5898-1.2461-16.535-0.51562-1.168-1.1445-2.3125-1.8242-3.4375 1.1484 0.50391 2.3008 0.97266 3.4609 1.3359 6.168 1.9414 11.93 1.5938 16.223-0.98438 3.1602-1.8945 5.3438-4.9219 5.9844-8.3281 0.64062-3.3672-0.15625-6.7656-2.2422-9.5781-2.0391-2.7422-6.293-6.2539-14.934-7.1875-1.2695-0.13672-2.5742-0.16797-3.8828-0.13672 1.0117-0.74219 1.9883-1.5117 2.8828-2.332 4.7656-4.375 7.3438-9.543 7.2656-14.551-0.11719-7.332-6.6484-12.988-13.637-12.188-3.4219 0.39453-8.5703 2.3281-13.695 9.3398-0.75 1.0273-1.4258 2.1445-2.0625 3.293-0.13672-1.25-0.31641-2.4805-0.57812-3.6641-1.4062-6.3164-4.5938-11.133-8.9609-13.562-3.2148-1.7891-6.9336-2.1602-10.195-1.0195-3.2344 1.1328-5.7773 3.5234-7.168 6.7266-1.3711 3.1602-2.2656 8.5898 1.2383 16.539 0.52734 1.1953 1.2539 2.3359 1.9531 3.4883-1.1875-0.52734-2.3945-1.0078-3.5938-1.3867-6.168-1.9414-11.93-1.5938-16.234 0.98438-3.1523 1.8945-5.3359 4.9258-5.9766 8.3242-0.64063 3.3672 0.15625 6.7656 2.2422 9.5781 0.55078 0.74219 1.2539 1.5352 2.1719 2.3242 2.4844 2.1367 6.4492 4.1797 12.762 4.8672 1.2656 0.13672 2.5703 0.16797 3.8828 0.13672-1.0117 0.74219-1.9844 1.5117-2.875 2.3281-4.7656 4.375-7.3438 9.543-7.2656 14.551 0.058594 3.6797 1.5977 7.082 4.2188 9.3398 2.6016 2.2383 5.9453 3.2461 9.4219 2.8477 3.4219-0.39453 8.5703-2.3281 13.695-9.3398 0.75-1.0273 1.4258-2.1445 2.0625-3.293 0.13672 1.25 0.31641 2.4805 0.57812 3.6641 1.125 5.0625 3.3945 9.168 6.5156 11.844 0.76562 0.65625 1.582 1.2344 2.4492 1.7148 3.2188 1.793 6.9375 2.168 10.203 1.0234 3.2188-1.1289 5.7617-3.5195 7.1602-6.7266zm-26.262-31.801c-2.5039-2.1562-2.7852-5.9297-0.62891-8.4336 2.1562-2.5039 5.9297-2.7852 8.4336-0.62891 2.5039 2.1562 2.7852 5.9297 0.62891 8.4336-2.1562 2.4961-5.9297 2.7852-8.4336 0.62891z"></path>
  <path d="m266.2 484.46c3.2656 1.1445 6.9844 0.76953 10.203-1.0234 0.86719-0.48047 1.6836-1.0586 2.4492-1.7148 3.1172-2.6797 5.3906-6.7852 6.5156-11.844 0.26172-1.1836 0.44141-2.418 0.57812-3.6641 0.63672 1.1484 1.3086 2.2656 2.0625 3.293 5.125 7.0117 10.273 8.9492 13.695 9.3398 3.4766 0.40234 6.8203-0.60938 9.4219-2.8477 2.6211-2.2578 4.1562-5.6641 4.2188-9.3398 0.082031-5.0078-2.5-10.176-7.2656-14.551-0.89062-0.82031-1.8672-1.5859-2.875-2.3281 1.3164 0.023437 2.6133 0 3.8828-0.13672 6.3125-0.67969 10.281-2.7305 12.762-4.8672 0.91016-0.78516 1.6211-1.582 2.1719-2.3242 2.0859-2.8125 2.8867-6.2188 2.2422-9.5781-0.64062-3.3945-2.8203-6.4219-5.9766-8.3242-4.2969-2.5742-10.066-2.9219-16.234-0.98438-1.2031 0.37891-2.4023 0.85547-3.5938 1.3867 0.69922-1.1484 1.4258-2.293 1.9531-3.4883 3.5078-7.9492 2.6094-13.383 1.2383-16.539-1.3906-3.2031-3.9336-5.5977-7.168-6.7266-3.2656-1.1445-6.9844-0.76953-10.195 1.0195-4.3672 2.4336-7.5586 7.25-8.9609 13.562-0.26172 1.1836-0.44141 2.418-0.57812 3.6641-0.63672-1.1484-1.3086-2.2656-2.0625-3.293-5.125-7.0117-10.273-8.9492-13.695-9.3398-6.9844-0.80078-13.523 4.8555-13.637 12.188-0.082031 5.0078 2.5 10.176 7.2656 14.551 0.89062 0.82031 1.8672 1.5859 2.8828 2.332-1.3164-0.03125-2.6211 0-3.8828 0.13672-8.6406 0.9375-12.891 4.4492-14.934 7.1875-2.0859 2.8125-2.8867 6.2188-2.2422 9.5781 0.64062 3.4023 2.8281 6.4336 5.9844 8.3281 4.293 2.5742 10.055 2.9219 16.223 0.98438 1.1602-0.36328 2.3125-0.82812 3.4609-1.3359-0.67969 1.125-1.3047 2.2656-1.8242 3.4375-3.5078 7.9453-2.6133 13.375-1.2461 16.535 1.3867 3.2109 3.9336 5.5977 7.1602 6.7266zm10.656-39.16c-2.1562-2.5039-1.875-6.2812 0.62891-8.4336 2.5039-2.1562 6.2812-1.875 8.4336 0.62891 2.1562 2.5039 1.875 6.2812-0.62891 8.4336-2.4961 2.1562-6.2773 1.875-8.4336-0.62891z"></path>
  <path d="m340.21 559.95c3.3711 0.78516 7.0273 0.019531 10.035-2.1094 0.8125-0.57031 1.5625-1.2305 2.2461-1.9648 2.8164-2.9961 4.6367-7.3242 5.2031-12.473 0.13672-1.2031 0.17969-2.4492 0.17969-3.7031 0.75 1.0781 1.543 2.1094 2.4023 3.0547 5.8438 6.4219 11.176 7.793 14.617 7.8203 3.5 0.023437 6.7227-1.3359 9.0625-3.8398 2.3633-2.5234 3.5273-6.0742 3.1875-9.7383-0.45703-4.9883-3.5703-9.8477-8.7812-13.688-0.97656-0.71875-2.0312-1.3789-3.1133-2.0039 1.3086-0.11719 2.6016-0.28125 3.8438-0.55469 6.2031-1.3555 9.9297-3.8203 12.168-6.207 0.82031-0.88281 1.4414-1.75 1.9102-2.543 1.7734-3.0195 2.2031-6.4883 1.2031-9.7656-1.0039-3.3047-3.4922-6.0859-6.832-7.6328-4.5508-2.0977-10.316-1.8242-16.242 0.76562-1.1523 0.50391-2.2969 1.1094-3.4258 1.7617 0.57422-1.2188 1.1758-2.4336 1.5664-3.6797 2.6367-8.2773 1.1602-13.582-0.53906-16.574-1.7266-3.0391-4.5156-5.1445-7.8477-5.918-3.3711-0.78516-7.0273-0.019532-10.031 2.1055-4.0859 2.8867-6.7422 8.0156-7.457 14.449-0.13672 1.2031-0.17969 2.4492-0.17969 3.7031-0.75-1.0781-1.543-2.1094-2.4023-3.0547-5.8438-6.4219-11.176-7.793-14.617-7.8203-7.0273-0.050781-12.922 6.2773-12.254 13.578 0.45703 4.9883 3.5703 9.8477 8.7812 13.688 0.97656 0.71875 2.0312 1.3789 3.1133 2.0117-1.3086 0.10938-2.6055 0.28125-3.8477 0.55469-8.4883 1.8594-12.344 5.8086-14.078 8.75-1.7734 3.0195-2.2031 6.4883-1.2031 9.7656 1.0039 3.3164 3.5 6.0898 6.8477 7.6367 4.543 2.0977 10.312 1.8242 16.238-0.76562 1.1133-0.48438 2.2109-1.0742 3.293-1.6992-0.55469 1.1875-1.0586 2.3945-1.4414 3.6133-2.6367 8.2734-1.1641 13.578 0.53906 16.57 1.7344 3.0312 4.5195 5.1289 7.8555 5.9062zm6.3984-40.078c-2.4141-2.2578-2.5352-6.0469-0.27734-8.4531 2.2578-2.4102 6.0469-2.5352 8.4531-0.27734 2.4102 2.2578 2.5352 6.0469 0.27734 8.4531-2.2617 2.4141-6.043 2.5391-8.4531 0.27734z"></path>
  <path d="m379.5 355.93c-1.0234-3.2891-3.8828-7.9922-11.73-11.723-1.1484-0.55078-2.3711-1.0078-3.6211-1.4141 1.1992-0.36719 2.3789-0.76562 3.4922-1.2461 5.9414-2.5547 10.082-6.5742 11.656-11.324 1.1602-3.4961 0.83984-7.2188-0.89062-10.219-1.707-2.9688-4.5352-5.0273-7.9492-5.8008-3.3359-0.74609-8.8477-0.62891-16.008 4.293-1.0469 0.72656-2.0547 1.5508-3.0312 2.4336 0.28125-1.2188 0.52344-2.4453 0.66406-3.6484 0.76172-6.4219-0.65625-12.02-3.9844-15.766-4.8672-5.4805-13.512-5.5078-18.285-0.34375-2.3359 2.5273-4.9766 7.3555-4.2891 16.012 0.10156 1.2695 0.31641 2.5547 0.58984 3.8438-0.91797-0.85547-1.8555-1.6719-2.832-2.3984-5.1836-3.8711-10.746-5.4414-15.645-4.4336-3.6016 0.74219-6.6641 2.8828-8.3945 5.8789-1.7148 2.9688-2.0859 6.4375-1.0469 9.7773 1.0234 3.2891 3.8828 7.9922 11.73 11.73 1.1797 0.55859 2.4727 0.95703 3.7578 1.3711-1.25 0.37891-2.4688 0.79688-3.6289 1.2891-5.9414 2.5547-10.082 6.5742-11.664 11.332-1.1523 3.4961-0.83203 7.2148 0.89844 10.207 1.707 2.9688 4.5352 5.0273 7.9492 5.8008 0.89844 0.20312 1.9531 0.34766 3.1602 0.34766 3.2734 0 7.6172-1.0391 12.848-4.6367 1.0469-0.71875 2.0547-1.5508 3.0312-2.4297-0.28125 1.2188-0.51953 2.4375-0.66406 3.6406-0.76172 6.4219 0.65625 12.02 3.9844 15.766 2.4453 2.75 5.8281 4.332 9.2852 4.332 3.4258 0 6.6211-1.4141 8.9961-3.9883 2.3359-2.5273 4.9766-7.3555 4.2891-16.012-0.10156-1.2695-0.31641-2.5547-0.58984-3.8438 0.91797 0.85547 1.8555 1.6719 2.832 2.3984 4.1523 3.1016 8.5508 4.7344 12.664 4.7305 1.0078 0 2.0039-0.097656 2.9727-0.29688 3.6055-0.74219 6.6719-2.8828 8.3984-5.8789 1.7188-2.9648 2.0898-6.4336 1.0547-9.7812zm-40.648-6.9727c-3.3047 0-5.9805-2.6797-5.9805-5.9805 0-3.3047 2.6797-5.9805 5.9805-5.9805 3.3047 0 5.9805 2.6758 5.9805 5.9805 0 3.3086-2.6797 5.9805-5.9805 5.9805z"></path>
  <path d="m446.17 426.72c-1.0234-3.2891-3.8828-7.9922-11.73-11.723-1.1484-0.55078-2.3711-1.0078-3.6211-1.4141 1.1992-0.36719 2.3789-0.76562 3.4922-1.2461 5.9414-2.5547 10.082-6.5742 11.656-11.324 1.1602-3.4961 0.83984-7.2188-0.89062-10.219-1.707-2.9688-4.5352-5.0273-7.9492-5.8008-3.3359-0.74609-8.8477-0.62891-16.008 4.293-1.0469 0.72656-2.0547 1.5508-3.0312 2.4336 0.28125-1.2188 0.52344-2.4453 0.66406-3.6484 0.76172-6.4219-0.65625-12.02-3.9844-15.766-4.8672-5.4805-13.512-5.5078-18.285-0.34375-2.3359 2.5273-4.9766 7.3555-4.2891 16.012 0.10156 1.2695 0.31641 2.5547 0.58984 3.8438-0.91797-0.85547-1.8555-1.6719-2.832-2.3984-5.1836-3.8711-10.746-5.4414-15.645-4.4336-3.6016 0.74219-6.6641 2.8828-8.3945 5.8789-1.7148 2.9688-2.0859 6.4375-1.0469 9.7773 1.0234 3.2891 3.8828 7.9922 11.73 11.73 1.1797 0.55859 2.4727 0.95703 3.7578 1.3711-1.25 0.37891-2.4688 0.79687-3.6289 1.2891-5.9414 2.5547-10.082 6.5742-11.664 11.332-1.1523 3.4961-0.83203 7.2148 0.89844 10.207 1.707 2.9688 4.5352 5.0273 7.9492 5.8008 0.89844 0.20312 1.9531 0.34766 3.1602 0.34766 3.2734 0 7.6172-1.0391 12.848-4.6367 1.0469-0.71875 2.0547-1.5508 3.0312-2.4297-0.28125 1.2188-0.51953 2.4375-0.66406 3.6406-0.76172 6.4219 0.65625 12.02 3.9844 15.766 2.4453 2.75 5.8281 4.332 9.2852 4.332 3.4258 0 6.6211-1.4141 8.9961-3.9883 2.3359-2.5273 4.9766-7.3555 4.2891-16.012-0.10156-1.2695-0.31641-2.5547-0.58984-3.8438 0.91797 0.85547 1.8555 1.6719 2.832 2.3984 4.1523 3.1016 8.5508 4.7344 12.664 4.7305 1.0078 0 2.0039-0.097656 2.9727-0.29688 3.6055-0.74219 6.6719-2.8828 8.3984-5.8789 1.7188-2.9609 2.0938-6.4336 1.0547-9.7812zm-40.648-6.9727c-3.3047 0-5.9805-2.6797-5.9805-5.9805 0-3.3047 2.6797-5.9805 5.9805-5.9805 3.3047 0 5.9805 2.6758 5.9805 5.9805 0 3.3086-2.6797 5.9805-5.9805 5.9805z"></path>
  <path d="m492.36 521.32c-1.75-2.9688-5.6055-6.8906-14.09-8.7344-1.2461-0.27344-2.5391-0.4375-3.8477-0.55078 1.082-0.62891 2.1406-1.2891 3.1133-2.0117 5.1992-3.8398 8.3125-8.707 8.7617-13.688 0.33203-3.668-0.83203-7.2188-3.2031-9.7422-2.3438-2.5-5.5625-3.8594-9.0625-3.8281-3.4141 0.035156-8.7617 1.4062-14.605 7.8359-0.85547 0.94141-1.6484 1.9805-2.3984 3.0586-0.003906-1.2539-0.050781-2.5-0.1875-3.7031-0.72656-6.4297-3.3867-11.559-7.4805-14.438-5.9922-4.2266-14.414-2.2734-17.879 3.8438-1.6992 2.9922-3.1641 8.2969-0.51953 16.57 0.38672 1.2148 0.89062 2.418 1.4492 3.6055-1.0898-0.625-2.1914-1.2031-3.3008-1.6914-5.9297-2.5859-11.703-2.8477-16.242-0.74609-3.3398 1.543-5.8281 4.3281-6.832 7.6445-0.99219 3.2812-0.55859 6.7461 1.2148 9.7578 1.75 2.9688 5.6055 6.8906 14.098 8.7422 1.2734 0.27734 2.6289 0.36328 3.9688 0.47266-1.1289 0.64844-2.2266 1.3359-3.2383 2.0859-5.1992 3.8398-8.3125 8.707-8.7656 13.695-0.32812 3.668 0.83984 7.2148 3.2031 9.7344 2.3438 2.5 5.5625 3.8594 9.0625 3.8281 0.92188-0.011719 1.9844-0.10938 3.1523-0.38281 3.1875-0.74609 7.1797-2.75 11.453-7.4453 0.85547-0.94141 1.6484-1.9805 2.3984-3.0586 0.003906 1.2539 0.050781 2.4922 0.1875 3.6992 0.72656 6.4297 3.3867 11.559 7.4805 14.438 3.0078 2.1211 6.6641 2.8867 10.031 2.0977 3.3359-0.78125 6.1211-2.8906 7.8477-5.9414 1.6992-2.9922 3.1641-8.2969 0.51953-16.57-0.38672-1.2148-0.89062-2.418-1.4492-3.6055 1.0898 0.625 2.1914 1.2031 3.3008 1.6914 4.75 2.0742 9.4062 2.6562 13.41 1.7148 0.98438-0.23047 1.9297-0.55078 2.8281-0.96875 3.3438-1.5469 5.8359-4.332 6.8359-7.6445 0.99219-3.2891 0.55859-6.75-1.2148-9.7656zm-41.168 2.4883c-3.2148 0.75391-6.4336-1.2383-7.1875-4.457-0.75391-3.2148 1.2383-6.4336 4.457-7.1875 3.2148-0.75391 6.4336 1.2383 7.1875 4.457s-1.2422 6.4375-4.457 7.1875z"></path>
  <path d="m263.98 342.41c-2.0117-2.7969-6.2188-6.3477-14.836-7.4062-1.2656-0.15625-2.5703-0.20312-3.8828-0.19531 1.0234-0.72656 2.0156-1.4805 2.918-2.2891 4.8281-4.3008 7.4805-9.4297 7.4727-14.434-0.003906-3.6836-1.4922-7.1133-4.0859-9.4062-2.5586-2.2734-5.8906-3.332-9.375-2.9844-3.3945 0.34766-8.5938 2.2031-13.824 9.1406-0.76563 1.0195-1.4609 2.125-2.1055 3.2695-0.12109-1.25-0.27734-2.4844-0.52344-3.668-1.3164-6.332-4.4336-11.195-8.7695-13.695-6.3516-3.6562-14.559-0.94141-17.453 5.4648-1.4141 3.1406-2.3867 8.5547 1.0078 16.547 0.5 1.1758 1.1094 2.3242 1.7734 3.457-1.1445-0.52344-2.293-0.99609-3.4414-1.3789-6.1406-2.0312-11.914-1.7578-16.242 0.75-3.1836 1.8438-5.4102 4.8477-6.1016 8.2383-0.68359 3.3555 0.066406 6.7656 2.1055 9.6016 2.0117 2.7969 6.2188 6.3477 14.836 7.4062 1.293 0.16016 2.6484 0.12109 3.9961 0.10938-1.0625 0.75-2.0898 1.5352-3.0312 2.3711-4.8281 4.3008-7.4805 9.4297-7.4727 14.445 0.011719 3.6836 1.4961 7.1055 4.0859 9.3945 2.5586 2.2734 5.8906 3.332 9.375 2.9844 0.91797-0.089844 1.9648-0.29297 3.1094-0.67578 3.1016-1.0391 6.8984-3.3945 10.715-8.4688 0.76562-1.0195 1.457-2.1211 2.1055-3.2656 0.12109 1.25 0.27734 2.4805 0.52344 3.668 1.3164 6.332 4.4336 11.195 8.7695 13.695 3.1875 1.832 6.9023 2.2617 10.184 1.1641 3.25-1.082 5.8281-3.4414 7.2695-6.6367 1.4141-3.1406 2.3867-8.5547-1.0078-16.547-0.5-1.1758-1.1094-2.3242-1.7734-3.457 1.1445 0.52344 2.293 0.99609 3.4414 1.3789 4.9219 1.6328 9.6133 1.7852 13.512 0.47266 0.95703-0.31641 1.875-0.72656 2.7266-1.2227 3.1875-1.8438 5.4141-4.8477 6.1016-8.2383 0.6875-3.3398-0.0625-6.75-2.1016-9.5898zm-40.766 6.2617c-3.1328 1.0469-6.5195-0.64453-7.5664-3.7773-1.0469-3.1328 0.64453-6.5195 3.7773-7.5664 3.1328-1.0469 6.5195 0.64453 7.5664 3.7773 1.0469 3.1328-0.64063 6.5195-3.7773 7.5664z"></path>
  <path d="m613.56 367.2c-0.023438-3.4453-1.4062-8.7695-7.8281-14.617-0.94141-0.85547-1.9805-1.6523-3.0586-2.4023 1.2539-0.003906 2.5-0.046875 3.7031-0.17969 6.4219-0.71875 11.559-3.375 14.438-7.4648 2.1211-3.0078 2.8984-6.6641 2.1055-10.035-0.77734-3.3359-2.8828-6.125-5.9297-7.8477-2.9727-1.6758-8.2891-3.168-16.566-0.52734-1.2148 0.38672-2.418 0.89062-3.6055 1.4453 0.625-1.0898 1.2109-2.1875 1.6914-3.293 2.5898-5.9297 2.8555-11.699 0.75391-16.242-3.0742-6.6562-11.34-9.1836-17.402-5.6211-2.9688 1.7422-6.8984 5.5977-8.7422 14.086-0.27344 1.2461-0.4375 2.5391-0.55078 3.8477-0.62891-1.082-1.2891-2.1406-2.0117-3.1172-3.8398-5.2109-8.707-8.3242-13.688-8.7773-3.6641-0.33594-7.2148 0.83203-9.7383 3.1992-2.5 2.3438-3.8594 5.5586-3.8359 9.0547 0.023437 3.4453 1.4062 8.7695 7.8281 14.621 0.96875 0.875 2.0898 1.6328 3.1992 2.3984-1.3047 0-2.5938 0.046875-3.8477 0.1875-6.4219 0.71875-11.559 3.375-14.445 7.4648-2.1211 3.0117-2.8828 6.6641-2.0977 10.031 0.77734 3.3359 2.8828 6.125 5.9297 7.8477 0.80078 0.45312 1.7734 0.89844 2.9219 1.2461 3.1328 0.94531 7.5938 1.2148 13.637-0.71484 1.2148-0.38672 2.418-0.89062 3.6055-1.4453-0.625 1.0898-1.2031 2.1875-1.6875 3.293-2.5898 5.9297-2.8555 11.699-0.75391 16.242 1.543 3.3398 4.3281 5.8359 7.6328 6.8359 3.2812 0.99219 6.7461 0.5625 9.7695-1.2148 2.9688-1.7422 6.8984-5.5977 8.7422-14.086 0.27344-1.2461 0.4375-2.5391 0.55078-3.8477 0.62891 1.082 1.2891 2.1406 2.0117 3.1172 3.0742 4.1758 6.8125 7.0078 10.75 8.1953 0.96094 0.29297 1.9453 0.48828 2.9336 0.57812 3.668 0.33594 7.2188-0.82812 9.7422-3.1953 2.5078-2.3477 3.8711-5.5625 3.8438-9.0625zm-36.883-18.449c-3.1641-0.95703-4.9492-4.2969-3.9883-7.457 0.95703-3.1641 4.2969-4.9492 7.457-3.9883 3.1641 0.95703 4.9492 4.2969 3.9883 7.457-0.95703 3.1562-4.2969 4.9453-7.457 3.9883z"></path>
  <path d="m591.71 252.25c-1.0234-3.2891-3.8828-7.9922-11.73-11.723-1.1484-0.55078-2.3711-1.0078-3.6211-1.4141 1.1992-0.36719 2.3789-0.76562 3.4922-1.2461 5.9414-2.5547 10.082-6.5742 11.656-11.324 1.1602-3.4961 0.83984-7.2188-0.89062-10.219-1.707-2.9688-4.5352-5.0273-7.9492-5.8008-3.3359-0.74609-8.8477-0.62891-16.008 4.293-1.0469 0.72656-2.0547 1.5508-3.0312 2.4336 0.28125-1.2188 0.52344-2.4453 0.66406-3.6484 0.76172-6.4219-0.65625-12.02-3.9844-15.766-4.8672-5.4805-13.512-5.5078-18.285-0.34375-2.3359 2.5273-4.9766 7.3555-4.2891 16.012 0.10156 1.2695 0.31641 2.5547 0.58984 3.8438-0.91797-0.85547-1.8555-1.6719-2.832-2.3984-5.1836-3.8711-10.746-5.4414-15.645-4.4336-3.6016 0.74219-6.6641 2.8828-8.3945 5.8789-1.7148 2.9688-2.0859 6.4375-1.0469 9.7773 1.0234 3.2891 3.8828 7.9922 11.73 11.73 1.1797 0.55859 2.4727 0.95703 3.7578 1.3711-1.25 0.37891-2.4688 0.79687-3.6289 1.2891-5.9414 2.5547-10.082 6.5742-11.664 11.332-1.1523 3.4961-0.83203 7.2148 0.89844 10.207 1.707 2.9688 4.5352 5.0273 7.9492 5.8008 0.89844 0.20312 1.9531 0.34766 3.1602 0.34766 3.2734 0 7.6172-1.0391 12.848-4.6367 1.0469-0.71875 2.0547-1.5508 3.0312-2.4297-0.28125 1.2188-0.51953 2.4375-0.66406 3.6406-0.76172 6.4219 0.65625 12.02 3.9844 15.766 2.4453 2.75 5.8281 4.332 9.2852 4.332 3.4258 0 6.6211-1.4141 8.9961-3.9883 2.3359-2.5273 4.9766-7.3555 4.2891-16.012-0.10156-1.2695-0.31641-2.5547-0.58984-3.8438 0.91797 0.85547 1.8555 1.6719 2.832 2.3984 4.1523 3.1016 8.5508 4.7344 12.664 4.7305 1.0078 0 2.0039-0.097656 2.9727-0.29688 3.6055-0.74219 6.6719-2.8828 8.3984-5.8789 1.7266-2.9648 2.0938-6.4336 1.0547-9.7812zm-40.645-6.9727c-3.3047 0-5.9805-2.6797-5.9805-5.9805 0-3.3047 2.6797-5.9805 5.9805-5.9805 3.3047 0 5.9805 2.6758 5.9805 5.9805-0.003907 3.3047-2.6758 5.9805-5.9805 5.9805z"></path>
  <path d="m289.19 252.25c-1.0234-3.2891-3.8828-7.9922-11.73-11.723-1.1484-0.55078-2.3711-1.0078-3.6211-1.4141 1.1992-0.36719 2.3789-0.76562 3.4922-1.2461 5.9414-2.5547 10.082-6.5742 11.656-11.324 1.1602-3.4961 0.83984-7.2188-0.89062-10.219-1.707-2.9688-4.5352-5.0273-7.9492-5.8008-3.3359-0.74609-8.8477-0.62891-16.008 4.293-1.0469 0.72656-2.0547 1.5508-3.0312 2.4336 0.28125-1.2188 0.52344-2.4453 0.66406-3.6484 0.76172-6.4219-0.65625-12.02-3.9844-15.766-4.8672-5.4805-13.512-5.5078-18.285-0.34375-2.3359 2.5273-4.9766 7.3555-4.2891 16.012 0.10156 1.2695 0.31641 2.5547 0.58984 3.8438-0.91797-0.85547-1.8555-1.6719-2.832-2.3984-5.1836-3.8711-10.746-5.4414-15.645-4.4336-3.6016 0.74219-6.6641 2.8828-8.3945 5.8789-1.7148 2.9688-2.0859 6.4375-1.0469 9.7773 1.0234 3.2891 3.8828 7.9922 11.73 11.73 1.1797 0.55859 2.4727 0.95703 3.7578 1.3711-1.25 0.37891-2.4688 0.79687-3.6289 1.2891-5.9414 2.5547-10.082 6.5742-11.664 11.332-1.1523 3.4961-0.83203 7.2148 0.89844 10.207 1.707 2.9688 4.5352 5.0273 7.9492 5.8008 0.89844 0.20312 1.9531 0.34766 3.1602 0.34766 3.2734 0 7.6172-1.0391 12.848-4.6367 1.0469-0.71875 2.0547-1.5508 3.0312-2.4297-0.28125 1.2188-0.51953 2.4375-0.66406 3.6406-0.76172 6.4219 0.65625 12.02 3.9844 15.766 2.4453 2.75 5.8281 4.332 9.2852 4.332 3.4258 0 6.6211-1.4141 8.9961-3.9883 2.3359-2.5273 4.9766-7.3555 4.2891-16.012-0.10156-1.2695-0.31641-2.5547-0.58984-3.8438 0.91797 0.85547 1.8555 1.6719 2.832 2.3984 4.1523 3.1016 8.5508 4.7344 12.664 4.7305 1.0078 0 2.0039-0.097656 2.9727-0.29688 3.6055-0.74219 6.6719-2.8828 8.3984-5.8789 1.7188-2.9648 2.0898-6.4336 1.0547-9.7812zm-40.652-6.9727c-3.3047 0-5.9805-2.6797-5.9805-5.9805 0-3.3047 2.6797-5.9805 5.9805-5.9805 3.3047 0 5.9805 2.6758 5.9805 5.9805 0.003906 3.3047-2.6758 5.9805-5.9805 5.9805z"></path>
  <path d="m441.2 247.34c-2.5352-2.3281-7.375-4.9531-16.031-4.2383-1.2695 0.10547-2.5586 0.32422-3.8438 0.59375 0.85156-0.92187 1.6719-1.8594 2.3945-2.832 3.8555-5.1953 5.4102-10.75 4.3828-15.652-0.75391-3.6055-2.9023-6.6602-5.9102-8.3828-2.9688-1.707-6.4453-2.0664-9.7852-1.0195-3.2539 1.0312-7.9648 3.8984-11.684 11.754-0.54297 1.1523-0.99609 2.3789-1.4023 3.6289-0.36719-1.1992-0.77734-2.3711-1.2578-3.4883-2.5703-5.9336-6.6094-10.066-11.371-11.629-6.9609-2.293-14.449 2.0352-15.977 8.8984-0.75 3.3594-0.60547 8.8633 4.3438 15.996 0.72656 1.0469 1.5586 2.0508 2.4375 3.0273-1.2227-0.27734-2.4492-0.51562-3.6523-0.65625-6.4297-0.74219-12.02 0.69531-15.75 4.0312-2.7461 2.4531-4.3125 5.8438-4.3008 9.3047 0.011719 3.4258 1.4375 6.6133 4.0117 8.9766 2.5352 2.3281 7.375 4.9531 16.031 4.2422 1.3008-0.10547 2.6211-0.41797 3.9336-0.70703-0.89062 0.95312-1.7383 1.9297-2.4883 2.9414-3.8555 5.1953-5.4102 10.75-4.3867 15.66 0.76172 3.6016 2.9062 6.6562 5.9062 8.375 2.9688 1.707 6.4453 2.0664 9.7852 1.0195 0.875-0.27734 1.8633-0.68359 2.9062-1.2891 2.832-1.6484 6.0664-4.7266 8.7773-10.465 0.54297-1.1523 0.99609-2.3711 1.4023-3.6211 0.36719 1.1992 0.77734 2.3711 1.2578 3.4805 2.5703 5.9336 6.6094 10.066 11.371 11.629 3.4961 1.1484 7.2188 0.8125 10.207-0.92578 2.9609-1.7227 5.0117-4.5547 5.7734-7.9688 0.75-3.3594 0.60547-8.8633-4.3438-15.996-0.72656-1.0469-1.5586-2.0508-2.4375-3.0273 1.2227 0.27734 2.4492 0.51562 3.6523 0.65625 5.1484 0.59766 9.7734-0.20703 13.324-2.2773 0.87109-0.50391 1.6875-1.0898 2.418-1.75 2.7461-2.4531 4.3164-5.8438 4.3008-9.3047 0.003906-3.4297-1.4219-6.6172-3.9961-8.9844zm-38.648 14.402c-2.8555 1.6641-6.5195 0.69141-8.1758-2.168-1.6641-2.8555-0.69141-6.5195 2.168-8.1758 2.8555-1.6562 6.5156-0.69141 8.1758 2.168 1.6562 2.8555 0.69141 6.5195-2.168 8.1758z"></path>
  <path d="m467.39 203.73s10.469 1.2461 21.746 6.3828c5.125 2.332 9.5156 5.0625 12.801 7.3555-2.2617-5.2109-8.5938-17.391-20.164-22.668-14.906-6.7969-32.832 0.51953-32.832 0.51953s6.2422 18.324 21.148 25.121c11.566 5.2734 24.918 2.0547 30.336 0.34766-3.8828-0.97656-8.8281-2.5-13.949-4.8359-11.277-5.1367-19.086-12.223-19.086-12.223z"></path>
  <path d="m472.56 251.41s7.5781-7.332 18.688-12.82c5.043-2.4922 9.9414-4.1758 13.789-5.2734-5.4648-1.5352-18.914-4.3281-30.309 1.3086-14.688 7.2656-20.344 25.781-20.344 25.781s18.148 6.7422 32.832-0.52344c11.395-5.6367 17.336-18.016 19.438-23.293-3.2109 2.3945-7.5156 5.2656-12.559 7.7578-11.109 5.4922-21.535 7.0625-21.535 7.0625z"></path>
  <path d="m336.73 202.35s10.047 3.1992 20.148 10.375c4.5898 3.2578 8.3867 6.7695 11.18 9.6445-1.2383-5.543-5.1602-18.703-15.523-26.066-13.355-9.4883-32.34-5.6914-32.34-5.6914s2.6719 19.176 16.027 28.66c10.367 7.3594 24.082 6.7266 29.727 6.0703-3.6328-1.6914-8.1953-4.1211-12.785-7.3789-10.102-7.1797-16.434-15.613-16.434-15.613z"></path>
  <path d="m294.98 292.81s-10.133-2.9219-20.43-9.8125c-4.6758-3.1328-8.5703-6.5391-11.441-9.332 1.3906 5.5078 5.668 18.555 16.234 25.629 13.613 9.1133 32.484 4.7969 32.484 4.7969s-3.1992-19.094-16.812-28.207c-10.566-7.0742-24.258-6.0625-29.883-5.25 3.6797 1.5938 8.3086 3.8945 12.984 7.0234 10.301 6.8945 16.863 15.152 16.863 15.152z"></path>
  <path d="m344.98 432.95s-4.8203-9.375-6.8633-21.598c-0.92578-5.5508-1.1172-10.723-1.0547-14.727-3.0547 4.7852-9.6172 16.848-7.5234 29.387 2.6992 16.156 18.781 26.938 18.781 26.938s11.707-15.422 9.0078-31.578c-2.0977-12.539-12.223-21.816-16.668-25.352 1.3594 3.7617 2.8633 8.7148 3.7891 14.27 2.0469 12.223 0.53125 22.66 0.53125 22.66z"></path>
  <path d="m386.78 471.14s10.348 2.0312 21.199 8.0117c4.9336 2.7148 9.1055 5.7734 12.207 8.3047-1.8633-5.3672-7.2539-17.992-18.391-24.129-14.348-7.9062-32.777-1.9688-32.777-1.9688s4.8359 18.746 19.191 26.648c11.141 6.1328 24.691 3.9414 30.223 2.6445-3.7969-1.2656-8.6133-3.1602-13.543-5.875-10.863-5.9805-18.109-13.637-18.109-13.637z"></path>
  <path d="m464.48 420.9s4.1406-9.6992 12.254-19.062c3.6836-4.2578 7.543-7.7031 10.664-10.207-5.6328 0.70703-19.109 3.3438-27.426 12.965-10.723 12.391-8.7578 31.648-8.7578 31.648s19.34-0.82812 30.062-13.215c8.3164-9.6172 8.9922-23.332 8.8828-29.008-2.0312 3.4492-4.8867 7.7656-8.5703 12.02-8.1094 9.3633-17.109 14.859-17.109 14.859z"></path>
  <path d="m407.41 341.45s-6.7266-8.1211-11.352-19.613c-2.1016-5.2227-3.4023-10.227-4.2031-14.152-1.9492 5.332-5.7617 18.523-1.0195 30.32 6.1172 15.199 24.141 22.262 24.141 22.262s8.1133-17.578 1.9961-32.777c-4.7461-11.793-16.637-18.672-21.734-21.164 2.1406 3.3867 4.6719 7.8945 6.7695 13.121 4.6328 11.488 5.4023 22.004 5.4023 22.004z"></path>
  <path d="m321.31 257.24s6.7617-8.0898 17.227-14.727c4.7578-3.0117 9.4414-5.2031 13.156-6.6992-5.5977-0.94531-19.266-2.3008-30 4.5039-13.836 8.7695-17.508 27.781-17.508 27.781s18.762 4.7852 32.598-3.9883c10.734-6.8125 15.34-19.75 16.867-25.215-2.9375 2.7188-6.918 6.0273-11.668 9.043-10.469 6.6367-20.672 9.3008-20.672 9.3008z"></path>
  <path d="m523.84 291.96s-9.4766 4.625-21.734 6.4141c-5.5703 0.8125-10.742 0.89844-14.746 0.75 4.7266 3.1484 16.645 9.9648 29.227 8.1328 16.211-2.3633 27.32-18.219 27.32-18.219s-15.176-12.02-31.387-9.6562c-12.582 1.832-22.062 11.77-25.688 16.137 3.793-1.2852 8.7773-2.6797 14.344-3.4922 12.262-1.793 22.664-0.066406 22.664-0.066406z"></path>
  <path d="m527.3 371.41s6.9688 7.9141 11.93 19.266c2.2578 5.1602 3.7031 10.121 4.6211 14.02 1.7891-5.3867 5.2109-18.688 0.11719-30.34-6.5664-15.008-24.793-21.531-24.793-21.531s-7.582 17.816-1.0195 32.824c5.0938 11.648 17.18 18.168 22.355 20.512-2.2422-3.3203-4.9023-7.7539-7.1602-12.914-4.9688-11.348-6.0508-21.836-6.0508-21.836z"></path>
  <path d="m281.46 366.45s-1.3789 10.453-6.6602 21.66c-2.3984 5.0938-5.1875 9.4531-7.5234 12.699 5.2344-2.1953 17.504-8.3672 22.922-19.871 6.9883-14.816-0.089844-32.84-0.089844-32.84s-18.402 6.0039-25.391 20.824c-5.4219 11.504-2.3789 24.895-0.74219 30.328 1.0273-3.8711 2.6133-8.7969 5.0117-13.887 5.2852-11.195 12.473-18.914 12.473-18.914z"></path>
  <path d="m404.39 593.26s3.2891-10.02 10.555-20.059c3.3008-4.5586 6.8477-8.3281 9.7422-11.094-5.5508 1.1875-18.746 4.9883-26.203 15.285-9.6094 13.27-5.9844 32.289-5.9844 32.289s19.199-2.5 28.805-15.77c7.457-10.297 6.9414-24.023 6.3398-29.668-1.7227 3.6133-4.1953 8.1602-7.4961 12.723-7.2695 10.039-15.758 16.293-15.758 16.293z"></path>
  <path d="m184.49 286.1s-0.26172-10.539 3.2148-22.434c1.582-5.4023 3.6562-10.141 5.457-13.719-4.832 2.9844-15.992 10.988-19.559 23.191-4.6016 15.723 5.1953 32.426 5.1953 32.426s17.246-8.793 21.844-24.516c3.5664-12.203-1.5234-24.957-3.9805-30.074-0.41406 3.9844-1.2148 9.0938-2.7969 14.496-3.4727 11.887-9.375 20.629-9.375 20.629z"></path>
  <path d="m610.82 274.68s4.1016 9.7148 5.2109 22.059c0.50391 5.6055 0.30078 10.777-0.058594 14.762 3.4062-4.543 10.863-16.07 9.7227-28.738-1.4727-16.32-16.691-28.277-16.691-28.277s-12.836 14.488-11.371 30.809c1.1367 12.664 10.539 22.676 14.699 26.535-1.0742-3.8594-2.1953-8.9062-2.6992-14.516-1.1094-12.34 1.1875-22.633 1.1875-22.633z"></path>
  <path d="m588.89 400.89s-7.7773 7.1133-19.035 12.297c-5.1133 2.3516-10.051 3.8945-13.93 4.8867 5.4219 1.6875 18.781 4.8516 30.336-0.46484 14.883-6.8516 20.332-25.332 20.332-25.332s-17.23-7.1094-32.113-0.25781c-11.551 5.3164-17.836 17.527-20.082 22.742 3.2734-2.3008 7.6562-5.0547 12.773-7.4062 11.25-5.1797 21.719-6.4648 21.719-6.4648z"></path>
  <path d="m299.97 192.89c0 4.4219-3.5859 8.0078-8.0078 8.0078-4.418 0-8.0039-3.5859-8.0039-8.0078 0-4.418 3.5859-8.0039 8.0039-8.0039 4.4219 0 8.0078 3.5859 8.0078 8.0039"></path>
  <path d="m284.8 324.35c0 4.4219-3.582 8.0039-8.0039 8.0039s-8.0039-3.582-8.0039-8.0039c0-4.4219 3.582-8.0039 8.0039-8.0039s8.0039 3.582 8.0039 8.0039"></path>
  <path d="m461.77 283.9c0 4.418-3.5859 8.0039-8.0039 8.0039-4.4219 0-8.0078-3.5859-8.0078-8.0039 0-4.4219 3.5859-8.0078 8.0078-8.0078 4.418 0 8.0039 3.5859 8.0039 8.0078"></path>
  <path d="m578.06 288.96c0 4.4219-3.582 8.0078-8.0039 8.0078-4.4219 0-8.0039-3.5859-8.0039-8.0078 0-4.418 3.582-8.0039 8.0039-8.0039 4.4219 0 8.0039 3.5859 8.0039 8.0039"></path>
  <path d="m461.77 460.87c0 4.4219-3.5859 8.0078-8.0039 8.0078-4.4219 0-8.0078-3.5859-8.0078-8.0078 0-4.418 3.5859-8.0039 8.0078-8.0039 4.418 0 8.0039 3.5859 8.0039 8.0039"></path>
  <path d="m385.92 572.1c0 4.418-3.5859 8.0039-8.0039 8.0039-4.4219 0-8.0078-3.5859-8.0078-8.0039 0-4.4219 3.5859-8.0078 8.0078-8.0078 4.418 0 8.0039 3.5859 8.0039 8.0078"></path>
  <path d="m302.62 501.32c0 3.0938-2.5078 5.6016-5.6016 5.6016s-5.6016-2.5078-5.6016-5.6016c0-3.0977 2.5078-5.6055 5.6016-5.6055s5.6016 2.5078 5.6016 5.6055"></path>
  <path d="m403.75 531.65c0 3.0977-2.5078 5.6055-5.6016 5.6055s-5.6016-2.5078-5.6016-5.6055c0-3.0938 2.5078-5.6016 5.6016-5.6016s5.6016 2.5078 5.6016 5.6016"></path>
  <path d="m514.98 506.37c0 3.0977-2.5078 5.6055-5.6055 5.6055-3.0938 0-5.6016-2.5078-5.6016-5.6055 0-3.0938 2.5078-5.6016 5.6016-5.6016 3.0977 0 5.6055 2.5078 5.6055 5.6016"></path>
  <path d="m530.15 334.46c0 3.0938-2.5078 5.6016-5.6016 5.6016-3.0977 0-5.6055-2.5078-5.6055-5.6016 0-3.0977 2.5078-5.6055 5.6055-5.6055 3.0938 0 5.6016 2.5078 5.6016 5.6055"></path>
  <path d="m348.12 278.85c0 3.0938-2.5078 5.6016-5.6016 5.6016s-5.6016-2.5078-5.6016-5.6016 2.5078-5.6016 5.6016-5.6016 5.6016 2.5078 5.6016 5.6016"></path>
  <path d="m226.78 283.9c0 3.0938-2.5078 5.6016-5.6016 5.6016s-5.6016-2.5078-5.6016-5.6016c0-3.0977 2.5078-5.6055 5.6016-5.6055s5.6016 2.5078 5.6016 5.6055"></path>
  <path d="m459.36 228.29c0 3.0938-2.5078 5.6016-5.6016 5.6016-3.0977 0-5.6055-2.5078-5.6055-5.6016s2.5078-5.6016 5.6055-5.6016c3.0938 0 5.6016 2.5078 5.6016 5.6016"></path>
  <path d="m317.79 223.23c0 3.0938-2.5078 5.6016-5.6016 5.6016-3.0977 0-5.6055-2.5078-5.6055-5.6016s2.5078-5.6016 5.6055-5.6016c3.0938 0 5.6016 2.5078 5.6016 5.6016"></path>
  <path d="m520.04 192.89c0 3.0977-2.5078 5.6055-5.6016 5.6055s-5.6016-2.5078-5.6016-5.6055c0-3.0938 2.5078-5.6016 5.6016-5.6016s5.6016 2.5078 5.6016 5.6016"></path>
  <path d="m229.18 415.36c0 4.4219-3.5859 8.0039-8.0078 8.0039s-8.0039-3.582-8.0039-8.0039 3.582-8.0039 8.0039-8.0039 8.0078 3.582 8.0078 8.0039"></path>
 </g>

      </g>
      </svg>