<svg id="svg" fill="#978157" stroke="#978157" width="40" height="40" version="1.1" viewBox="144 144 512 512" xmlns="http://www.w3.org/2000/svg">
    <g id="IconSvg_bgCarrier" stroke-width="0"></g>
    <g id="IconSvg_tracerCarrier" stroke-linecap="round" stroke-linejoin="round" stroke="#CCCCCC" stroke-width="0">
      <path xmlns="http://www.w3.org/2000/svg" d="m609.34 407.14-94.637 163.91c-1.8359 3.457-5.4883 5.5586-9.3984 5.418h-175.82c-1.8398 0.046875-3.6602-0.42188-5.25-1.3516l-23.637-13.055 0.003906-180.78c0.15234-0.14062 0.30859-0.27734 0.45312-0.43359 58.219-60.688 96.367-106.71 116.64-140.66 3.6484-6.1016 6.5547-10.68 8.7227-13.734 2.0039 2.0742 4.2266 4.5508 5.7305 6.2344v0.003906c7.2031 8.2188 13.387 17.277 18.418 26.977 0.71094 1.332 1.375 2.5625 1.9883 3.707 1.9453 3.6094 3.9453 7.3125 4.6445 9.0469-0.34766 1.207-1.1719 3.4297-1.9062 5.418-0.99219 2.6719-2.2148 5.9922-3.6367 10.223l-18.961 56.602v-0.003906c-1.5781 4.6523-0.8125 9.7812 2.0508 13.773 2.8633 3.9883 7.4727 6.3555 12.387 6.3516h137.74c6.6406 0 13.066 2.3398 18.156 6.6094 5.0859 4.2656 8.5078 10.191 9.6602 16.73 1.1562 6.543-0.03125 13.277-3.3516 19.031zm-339.22 149.66h-83.453v-186.4h83.426v186.4zm314.75-222.5h-116.57c3.082-9.2461 12.648-37.98 15.562-45.863h0.003906c2.9336-6.1289 4.207-12.926 3.6953-19.703-2.2734-17.016-21.711-44.102-32.727-56.371-9.8359-10.969-18.332-20.441-31.242-19.199-13.16 1.2734-20.891 12.719-32.059 31.422-16.984 28.441-49.496 68.297-96.754 118.64v-0.003906c-2.6836-2.1133-6-3.2578-9.4141-3.25h-113.93c-4.0273 0.007812-7.8906 1.6094-10.742 4.4609-2.8516 2.8477-4.457 6.7109-4.4688 10.742v216.86c0 4.043 1.6055 7.918 4.4648 10.773 2.8594 2.8594 6.7344 4.4609 10.773 4.4609h111.75l26.328 14.523c6.0977 3.4219 12.984 5.1992 19.977 5.1523h175.79c7.2617 0.042969 14.406-1.8477 20.695-5.4766 6.293-3.6328 11.504-8.875 15.098-15.184l94.633-163.91c6.9023-11.957 9.375-25.965 6.9766-39.559-2.3984-13.598-9.5078-25.914-20.086-34.789-10.578-8.8711-23.941-13.734-37.746-13.734z" fill-rule="evenodd"></path>

      </g>
     <g id="IconSvg_iconCarrier">
      <path xmlns="http://www.w3.org/2000/svg" d="m609.34 407.14-94.637 163.91c-1.8359 3.457-5.4883 5.5586-9.3984 5.418h-175.82c-1.8398 0.046875-3.6602-0.42188-5.25-1.3516l-23.637-13.055 0.003906-180.78c0.15234-0.14062 0.30859-0.27734 0.45312-0.43359 58.219-60.688 96.367-106.71 116.64-140.66 3.6484-6.1016 6.5547-10.68 8.7227-13.734 2.0039 2.0742 4.2266 4.5508 5.7305 6.2344v0.003906c7.2031 8.2188 13.387 17.277 18.418 26.977 0.71094 1.332 1.375 2.5625 1.9883 3.707 1.9453 3.6094 3.9453 7.3125 4.6445 9.0469-0.34766 1.207-1.1719 3.4297-1.9062 5.418-0.99219 2.6719-2.2148 5.9922-3.6367 10.223l-18.961 56.602v-0.003906c-1.5781 4.6523-0.8125 9.7812 2.0508 13.773 2.8633 3.9883 7.4727 6.3555 12.387 6.3516h137.74c6.6406 0 13.066 2.3398 18.156 6.6094 5.0859 4.2656 8.5078 10.191 9.6602 16.73 1.1562 6.543-0.03125 13.277-3.3516 19.031zm-339.22 149.66h-83.453v-186.4h83.426v186.4zm314.75-222.5h-116.57c3.082-9.2461 12.648-37.98 15.562-45.863h0.003906c2.9336-6.1289 4.207-12.926 3.6953-19.703-2.2734-17.016-21.711-44.102-32.727-56.371-9.8359-10.969-18.332-20.441-31.242-19.199-13.16 1.2734-20.891 12.719-32.059 31.422-16.984 28.441-49.496 68.297-96.754 118.64v-0.003906c-2.6836-2.1133-6-3.2578-9.4141-3.25h-113.93c-4.0273 0.007812-7.8906 1.6094-10.742 4.4609-2.8516 2.8477-4.457 6.7109-4.4688 10.742v216.86c0 4.043 1.6055 7.918 4.4648 10.773 2.8594 2.8594 6.7344 4.4609 10.773 4.4609h111.75l26.328 14.523c6.0977 3.4219 12.984 5.1992 19.977 5.1523h175.79c7.2617 0.042969 14.406-1.8477 20.695-5.4766 6.293-3.6328 11.504-8.875 15.098-15.184l94.633-163.91c6.9023-11.957 9.375-25.965 6.9766-39.559-2.3984-13.598-9.5078-25.914-20.086-34.789-10.578-8.8711-23.941-13.734-37.746-13.734z" fill-rule="evenodd"></path>

      </g>
      </svg>