<svg id="svg" fill="#978157" stroke="#978157" width="40" height="40" version="1.1" viewBox="144 144 512 512" xmlns="http://www.w3.org/2000/svg">
    <g id="IconSvg_bgCarrier" stroke-width="0"></g>
    <g id="IconSvg_tracerCarrier" stroke-linecap="round" stroke-linejoin="round" stroke="#CCCCCC" stroke-width="0">
      <path xmlns="http://www.w3.org/2000/svg" d="m576.8 340.73c-4.6016 0-8.9922 0.83594-13.098 2.293 0.14453-1.875 0.30078-3.7422 0.38281-5.6133 0.019531-0.082031 0.085938-0.21094 0.097657-0.27734l-0.085938-0.14453c1.8906-45.609-15.25-90.418-47.922-123.09-64.055-64.055-168.28-64.051-232.33 0-30.824 30.824-47.914 71.805-48.117 115.39l15.113 0.070313c0.1875-39.574 15.703-76.785 43.691-104.77 23.23-23.23 52.285-37.152 82.504-41.828-14.348 13.777-33.836 36.602-47.316 68.496-9.9492-4.1055-19.648-9.0195-29.008-14.949l-8.0859 12.766c10.242 6.4883 20.863 11.848 31.762 16.324-6.2539 18.668-10.293 39.953-10.293 63.922 0 18.262 2.4688 35.906 7.1094 52.914-18.723-6.75-33.164-15.191-43.727-22.945l-8.9492 12.184c13.48 9.9062 32.703 20.867 58.418 28.605 5.6016 14.758 12.949 28.969 22.191 42.535l12.488-8.5078c-6.4375-9.4453-11.805-19.262-16.332-29.344 16.09 3.4023 34.285 5.4883 54.719 5.4883v-0.003907c20.285 0 38.445-2.0898 54.664-5.5312-21.895 48.609-58.371 73.984-58.898 74.336l0.035156 0.050781c-3.7188-0.10547-7.4219-0.35156-11.125-0.73438-2.6016-4.5742-5.8242-8.9922-9.9141-13.078-16.766-16.773-33.906-17.996-41.836-17.441l-27.746-27.746c-11.516-11.516-28.461-14.375-42.676-8.5742v-31.484c0-21.668-17.629-39.301-39.297-39.301l-7.5586 7.5586v87.047c0 17.426 6.7852 33.805 19.105 46.117l75.527 75.527v4.4375h15.113v-7.5664l-2.2109-5.3438-77.758-77.75c-9.4609-9.4609-14.676-22.047-14.676-35.434v-78.285c9.6484 3.1836 16.625 12.281 16.625 22.98v45.402l2.2109 5.3438 55.242 55.246 10.688-10.688-8.1484-8.1484-40.887-40.898c9.0625-4.5742 20.434-3.0781 28.008 4.4883l30.359 30.359 7.0586 2.0156c0.64844-0.14453 16.055-3.3008 32.156 12.809 15.922 15.922 15.723 39.414 15.594 54.961l-0.019531 43.102h-80.125l-7.5586 7.5586v45.027l7.5586 7.5586h87.723l7.5586-7.5586v-45.031l-0.046875-0.046874v-46.883l0.019532-3.5977c0.082031-9.7773 0.17187-23.355-3.6523-37.016 2.9531 0.15625 5.9062 0.30078 8.8633 0.30078 2.9609 0 5.9258-0.125 8.8828-0.28906-3.8203 13.648-3.7266 27.223-3.6484 37l0.019531 30.371h15.113l-0.019531-30.5c-0.13281-15.547-0.32812-39.039 15.586-54.961 16.113-16.113 31.512-12.941 32.074-12.828l7.1445-1.9961 30.359-30.359c7.5664-7.5625 18.941-9.0586 28.008-4.4883l-49.047 49.047 10.688 10.688 55.242-55.246 2.2109-5.3438v-45.402c0-10.699 6.9844-19.801 16.629-22.98v78.285c0 13.387-5.2109 25.965-14.676 35.434l-77.73 77.75-2.2109 5.3438v20.168h-61.855l-7.5586 7.5586v45.027l7.5586 7.5586h87.719l7.5586-7.5586v-45.035l-7.5586-7.5586h-10.758v-17.039l75.531-75.523c12.316-12.316 19.105-28.695 19.105-46.117v-87.051zm-197.11 278.31h-72.609v-29.91h72.609zm169.37-285.38c-3.3789 4.6016-13.68 17.289-32.566 29.852-9.3906 6.2422-21.82 13.004-37.508 18.668 4.3008-15.895 6.9375-33.504 6.9375-52.859 0-23.957-4.0352-45.23-10.277-63.887 17.477-7.1602 32.109-16.035 43.805-24.621 19.961 26.734 30.391 59.465 29.609 92.848zm-39.273-104.52c-10.629 7.7266-23.809 15.664-39.477 22.121-13.488-31.906-32.98-54.738-47.332-68.523 30.223 4.6719 59.277 18.594 82.508 41.828 1.4844 1.4883 2.8867 3.0352 4.3008 4.5742zm-109.78-46.348c10.52 8.3828 38.336 33.266 55.816 73.727-16.41 5.2031-35.023 8.5938-55.816 8.5938-19.336 0-37.973-2.9492-55.82-8.5938 17.484-40.461 45.301-65.34 55.82-73.727zm0 212.32c-23.652 0-44.02-2.957-61.426-7.5-6.1719-18.574-9.3828-38.039-9.3828-58.305 0-21.895 3.7539-41.453 9.5586-58.664 19.566 6.2969 40.02 9.582 61.25 9.582 22.871 0 43.293-3.7891 61.25-9.5781 5.8047 17.207 9.5586 36.762 9.5586 58.66 0 21.734-3.6914 41.172-9.4258 58.285-17.305 4.5156-37.66 7.5195-61.383 7.5195zm94.816 24.969-27.746 27.746c-4.8672-0.32812-13.23 0.015625-22.848 4.2188 10.543-13.773 21.145-31.125 29.023-52.09 30.676-9.2812 52.875-23.355 67.66-35.887-2.1797 4.8828-3.4219 10.273-3.4219 15.957v31.484c-14.203-5.8047-31.148-2.9531-42.668 8.5703zm-1.8984 198.95h-72.605v-29.91h72.605z"></path>

      </g>
     <g id="IconSvg_iconCarrier">
      <path xmlns="http://www.w3.org/2000/svg" d="m576.8 340.73c-4.6016 0-8.9922 0.83594-13.098 2.293 0.14453-1.875 0.30078-3.7422 0.38281-5.6133 0.019531-0.082031 0.085938-0.21094 0.097657-0.27734l-0.085938-0.14453c1.8906-45.609-15.25-90.418-47.922-123.09-64.055-64.055-168.28-64.051-232.33 0-30.824 30.824-47.914 71.805-48.117 115.39l15.113 0.070313c0.1875-39.574 15.703-76.785 43.691-104.77 23.23-23.23 52.285-37.152 82.504-41.828-14.348 13.777-33.836 36.602-47.316 68.496-9.9492-4.1055-19.648-9.0195-29.008-14.949l-8.0859 12.766c10.242 6.4883 20.863 11.848 31.762 16.324-6.2539 18.668-10.293 39.953-10.293 63.922 0 18.262 2.4688 35.906 7.1094 52.914-18.723-6.75-33.164-15.191-43.727-22.945l-8.9492 12.184c13.48 9.9062 32.703 20.867 58.418 28.605 5.6016 14.758 12.949 28.969 22.191 42.535l12.488-8.5078c-6.4375-9.4453-11.805-19.262-16.332-29.344 16.09 3.4023 34.285 5.4883 54.719 5.4883v-0.003907c20.285 0 38.445-2.0898 54.664-5.5312-21.895 48.609-58.371 73.984-58.898 74.336l0.035156 0.050781c-3.7188-0.10547-7.4219-0.35156-11.125-0.73438-2.6016-4.5742-5.8242-8.9922-9.9141-13.078-16.766-16.773-33.906-17.996-41.836-17.441l-27.746-27.746c-11.516-11.516-28.461-14.375-42.676-8.5742v-31.484c0-21.668-17.629-39.301-39.297-39.301l-7.5586 7.5586v87.047c0 17.426 6.7852 33.805 19.105 46.117l75.527 75.527v4.4375h15.113v-7.5664l-2.2109-5.3438-77.758-77.75c-9.4609-9.4609-14.676-22.047-14.676-35.434v-78.285c9.6484 3.1836 16.625 12.281 16.625 22.98v45.402l2.2109 5.3438 55.242 55.246 10.688-10.688-8.1484-8.1484-40.887-40.898c9.0625-4.5742 20.434-3.0781 28.008 4.4883l30.359 30.359 7.0586 2.0156c0.64844-0.14453 16.055-3.3008 32.156 12.809 15.922 15.922 15.723 39.414 15.594 54.961l-0.019531 43.102h-80.125l-7.5586 7.5586v45.027l7.5586 7.5586h87.723l7.5586-7.5586v-45.031l-0.046875-0.046874v-46.883l0.019532-3.5977c0.082031-9.7773 0.17187-23.355-3.6523-37.016 2.9531 0.15625 5.9062 0.30078 8.8633 0.30078 2.9609 0 5.9258-0.125 8.8828-0.28906-3.8203 13.648-3.7266 27.223-3.6484 37l0.019531 30.371h15.113l-0.019531-30.5c-0.13281-15.547-0.32812-39.039 15.586-54.961 16.113-16.113 31.512-12.941 32.074-12.828l7.1445-1.9961 30.359-30.359c7.5664-7.5625 18.941-9.0586 28.008-4.4883l-49.047 49.047 10.688 10.688 55.242-55.246 2.2109-5.3438v-45.402c0-10.699 6.9844-19.801 16.629-22.98v78.285c0 13.387-5.2109 25.965-14.676 35.434l-77.73 77.75-2.2109 5.3438v20.168h-61.855l-7.5586 7.5586v45.027l7.5586 7.5586h87.719l7.5586-7.5586v-45.035l-7.5586-7.5586h-10.758v-17.039l75.531-75.523c12.316-12.316 19.105-28.695 19.105-46.117v-87.051zm-197.11 278.31h-72.609v-29.91h72.609zm169.37-285.38c-3.3789 4.6016-13.68 17.289-32.566 29.852-9.3906 6.2422-21.82 13.004-37.508 18.668 4.3008-15.895 6.9375-33.504 6.9375-52.859 0-23.957-4.0352-45.23-10.277-63.887 17.477-7.1602 32.109-16.035 43.805-24.621 19.961 26.734 30.391 59.465 29.609 92.848zm-39.273-104.52c-10.629 7.7266-23.809 15.664-39.477 22.121-13.488-31.906-32.98-54.738-47.332-68.523 30.223 4.6719 59.277 18.594 82.508 41.828 1.4844 1.4883 2.8867 3.0352 4.3008 4.5742zm-109.78-46.348c10.52 8.3828 38.336 33.266 55.816 73.727-16.41 5.2031-35.023 8.5938-55.816 8.5938-19.336 0-37.973-2.9492-55.82-8.5938 17.484-40.461 45.301-65.34 55.82-73.727zm0 212.32c-23.652 0-44.02-2.957-61.426-7.5-6.1719-18.574-9.3828-38.039-9.3828-58.305 0-21.895 3.7539-41.453 9.5586-58.664 19.566 6.2969 40.02 9.582 61.25 9.582 22.871 0 43.293-3.7891 61.25-9.5781 5.8047 17.207 9.5586 36.762 9.5586 58.66 0 21.734-3.6914 41.172-9.4258 58.285-17.305 4.5156-37.66 7.5195-61.383 7.5195zm94.816 24.969-27.746 27.746c-4.8672-0.32812-13.23 0.015625-22.848 4.2188 10.543-13.773 21.145-31.125 29.023-52.09 30.676-9.2812 52.875-23.355 67.66-35.887-2.1797 4.8828-3.4219 10.273-3.4219 15.957v31.484c-14.203-5.8047-31.148-2.9531-42.668 8.5703zm-1.8984 198.95h-72.605v-29.91h72.605z"></path>

      </g>
      </svg>