<svg id="svg" fill="#978157" stroke="#978157" width="200" height="200" version="1.1" viewBox="144 144 512 512" xmlns="http://www.w3.org/2000/svg">
    <g id="IconSvg_bgCarrier" stroke-width="0"></g>
    <g id="IconSvg_tracerCarrier" stroke-linecap="round" stroke-linejoin="round" stroke="#CCCCCC" stroke-width="0">
      <g xmlns="http://www.w3.org/2000/svg">
  <path d="m376.38 305.54h15.742v15.742h-15.742z"></path>
  <path d="m407.87 305.54h15.742v15.742h-15.742z"></path>
  <path d="m392.12 352.77h15.742v15.742h-15.742z"></path>
  <path d="m632.66 275.37-23.617-15.742c-2.6445-1.7656-6.0898-1.7656-8.7383 0l-22.043 14.711-49.516 6.1875 64.41-46.531h0.003906c3.2773-2.3633 4.2266-6.8281 2.2031-10.328l20.469-11.809h-0.003906c1.8125-1.0391 3.1367-2.7617 3.6758-4.7812 0.54297-2.0156 0.26172-4.168-0.78516-5.9766l-7.8711-13.617v-0.003907c-1.3086-2.2812-3.6719-3.7578-6.2969-3.9336l-28.34-1.8203c-3.1719-0.20312-6.1523 1.5234-7.5586 4.3711l-11.77 23.758-48.246 36.516-43.691 16.367c-0.40625 0.15234-0.79688 0.33984-1.1719 0.55859l-18.648 10.754h-21.508v-15.949c7.6719-5.7188 12.992-14.047 14.957-23.41h4.7227c7.0312 0 13.531-3.7539 17.047-9.8398 3.5156-6.0898 3.5156-13.594 0-19.684-3.5156-6.0859-10.016-9.8398-17.047-9.8398h-4.7227c-2.4258-11.953-10.262-22.109-21.211-27.488-10.949-5.3828-23.773-5.3828-34.723 0-10.949 5.3789-18.785 15.535-21.211 27.488h-4.7227c-7.0312 0-13.527 3.7539-17.043 9.8398-3.5156 6.0898-3.5156 13.594 0 19.684 3.5156 6.0859 10.012 9.8398 17.043 9.8398h4.7227c1.9648 9.3633 7.2852 17.691 14.957 23.41v15.949h-21.508l-18.641-10.754c-0.375-0.21875-0.76562-0.40625-1.1719-0.55859l-43.699-16.367-48.238-36.516-11.809-23.773c-1.4219-2.832-4.3945-4.5469-7.5586-4.3633l-28.34 1.8203h0.003906c-2.625 0.17578-4.9883 1.6523-6.3008 3.9336l-7.8711 13.617v0.003906c-1.0469 1.8125-1.3281 3.9648-0.78125 5.9844 0.54297 2.0234 1.8711 3.7422 3.6875 4.7812l20.469 11.809h-0.003906c-2.0156 3.5039-1.0508 7.9648 2.2305 10.32l64.156 46.074 0.69922 0.51172-49.965-6.2422-22.043-14.711h0.003906c-2.6445-1.7656-6.0938-1.7656-8.7383 0l-23.617 15.742c-2.1914 1.4609-3.5117 3.9219-3.5117 6.5586v15.746c0 2.0859 0.83203 4.0898 2.3086 5.5664 1.4766 1.4727 3.4766 2.3047 5.5664 2.3047h23.613c-0.019531 4.0586 3.0508 7.4648 7.0859 7.8711l78.641 7.8711 63.844 7.0859v85.02l-60.48 89.242-43.957 61.211-24.664 1.6406c-2.625 0.17578-4.9883 1.6523-6.2969 3.9375l-3.9375 6.7695c-1.0508 1.8086-1.3398 3.9609-0.80078 5.9844 0.53906 2.0234 1.8633 3.7461 3.6758 4.793l40.934 23.617v-0.003906c3.3633 1.9414 7.6367 1.1367 10.07-1.8867l64.551-80.508 13.934-15.879-0.85938 12.863-7.5039 75.02-20.523 13.68 0.003906 0.003907c-2.1914 1.457-3.5039 3.918-3.5039 6.5469v7.875c0 2.0859 0.82812 4.0898 2.3047 5.5664 1.4766 1.4727 3.4805 2.3047 5.5664 2.3047h47.23c3.8867-0.003906 7.1875-2.8359 7.7773-6.6758l15.684-101.96 14.484-72.422h2.832l14.422 72.043 15.742 102.34 0.003906 0.003906c0.58984 3.8398 3.8906 6.6719 7.7773 6.6758h47.23c2.0898 0 4.0898-0.83203 5.5664-2.3047 1.4766-1.4766 2.3047-3.4805 2.3047-5.5664v-7.875c0.003906-2.6289-1.3125-5.0898-3.5-6.5469l-20.523-13.684-7.4766-74.785-0.9375-13.121 13.707 15.617 64.785 80.766v0.003906c2.4297 3.0234 6.7031 3.8281 10.066 1.8867l40.934-23.617c1.8125-1.043 3.1367-2.7695 3.6758-4.7891 0.53906-2.0234 0.25-4.1758-0.80078-5.9844l-3.9375-6.7695c-1.3086-2.2852-3.6719-3.7617-6.2969-3.9375l-24.633-1.6367-43.805-61.008-60.617-89.484v-84.961l40.461-4.4961 102.02-10.461c4.0391-0.40625 7.1055-3.8125 7.0859-7.8711h23.617c2.0859 0 4.0898-0.83203 5.5664-2.3047 1.4727-1.4766 2.3047-3.4805 2.3047-5.5664v-15.746c0-2.6328-1.3164-5.0898-3.5039-6.5508zm-117.4-14.648c0.71094-0.27344 1.3828-0.64453 1.9922-1.1016l50.617-38.336c0.97266-0.73828 1.7578-1.6914 2.2969-2.7891l10.234-20.727 18.895 1.2109 1.8203 3.1484-20.469 11.809h-0.003906c-3.7656 2.1719-5.0625 6.9805-2.8945 10.746l0.39453 0.66797-58.484 42.047-16.215 11.957-26.293-4.3672zm-120.36 178.64-34.254-27.402v-11.957h78.723v11.957l-34.25 27.402zm44.469-118.08v62.977h-78.723v-94.465h78.723zm-15.746-94.465c0 8.4375-4.5 16.234-11.809 20.453-7.3047 4.2188-16.309 4.2188-23.613 0-7.3086-4.2188-11.809-12.016-11.809-20.453v-15.742h15.742v15.742h-7.8711v15.742h31.488v-15.742h-7.8711v-15.742h15.742zm23.617-11.809v0.003906c0 1.043-0.41406 2.043-1.1523 2.7812-0.73828 0.73828-1.7383 1.1523-2.7852 1.1523h-3.9336v-7.8711h3.9375-0.003906c1.0469 0 2.0469 0.41406 2.7852 1.1523 0.73828 0.73828 1.1523 1.7383 1.1523 2.7852zm-47.23-35.422c4.8672 0.019531 9.6055 1.543 13.574 4.3633 3.9688 2.8164 6.9688 6.793 8.5938 11.379h-44.336c1.6211-4.5859 4.6211-8.5625 8.5898-11.379 3.9688-2.8203 8.7109-4.3438 13.578-4.3633zm-47.234 35.426c0-2.1758 1.7617-3.9375 3.9375-3.9375h3.9336v7.8711h-3.9375 0.003906c-2.1758 0-3.9375-1.7617-3.9375-3.9336zm39.359 50.383v-0.003906c5.1953 1.0586 10.551 1.0586 15.746 0v8.6602h-15.746zm-170.29-40.039 0.39453-0.66797-0.003906-0.003906c2.168-3.7656 0.87109-8.5742-2.8945-10.746l-20.469-11.809 1.8203-3.1484 18.895-1.2109 10.234 20.734h-0.003906c0.54297 1.0898 1.3281 2.043 2.3008 2.7812l50.617 38.336c0.60938 0.45703 1.2773 0.82812 1.9883 1.1016l38.141 14.266-26.277 4.375zm84.332 82.828-95.094-9.7305v-0.78516c0-2.0898-0.82812-4.0938-2.3047-5.5664-1.4766-1.4766-3.4805-2.3086-5.5664-2.3086h-23.617v-3.6602l15.742-10.508 19.246 12.832h0.003907c1.0156 0.67578 2.1797 1.1094 3.3906 1.2578l62.977 7.8711c0.75781 0.097657 1.5234 0.078125 2.2773-0.046875l46.586-7.7461h15.09v22.695zm5.8242 209.85-60.559 75.5-22.758-13.121 16.531-1.1016c2.3516-0.15625 4.5078-1.3555 5.8789-3.2695l46.25-64.41 45.492-67.172-3 41.848zm41.895 102.38h-26.309l13.793-9.1953c1.9805-1.293 3.2773-3.4062 3.5273-5.7617l7.8711-78.949 6.7148-94.023 0.085937-1.2344 23.902 19.129-14.863 74.367zm118.54 0h-26.309l-14.785-96.039-14.797-73.996 23.914-19.137 0.15625 2.2031 6.668 93.285 7.8711 78.719c0.23828 2.3438 1.5078 4.457 3.4648 5.7617zm76.516-44.375c1.3711 1.9141 3.5312 3.1133 5.8789 3.2695l16.531 1.1016-22.758 13.121-60.789-75.762-27.605-31.488-2.7305-38.012-0.27734-3.8008 45.656 67.336zm71.477-286.25h-23.613c-4.3477 0-7.875 3.5273-7.875 7.875v0.78516l-71.715 7.1719-62.109 6.8633v-22.695h15.09l46.578 7.7617h0.003907c0.75391 0.12109 1.5234 0.13672 2.2812 0.046875l62.977-7.8711c1.2148-0.14844 2.375-0.58203 3.3945-1.2578l19.246-12.848 15.742 10.492z"></path>
  <path d="m274.05 431.49v-23.617h31.488c2.0859 0 4.0898-0.83203 5.5664-2.3086l23.617-23.617-11.133-11.133-21.312 21.312h-28.227v-23.613c0-2.0898-0.83203-4.0898-2.3047-5.5664-1.4766-1.4766-3.4805-2.3086-5.5664-2.3086h-94.465c-4.3477 0-7.875 3.5273-7.875 7.875v62.977c0 2.0859 0.83203 4.0898 2.3086 5.5664 1.4766 1.4727 3.4766 2.3047 5.5664 2.3047h94.465c2.0859 0 4.0898-0.83203 5.5664-2.3047 1.4727-1.4766 2.3047-3.4805 2.3047-5.5664zm-15.742-7.8711-78.723-0.003907v-47.23h78.719z"></path>
  <path d="m628.29 360.64h-94.465c-4.3477 0-7.875 3.5273-7.875 7.875v23.617l-15.742-0.003906c-2.0859 0-4.0898 0.83203-5.5664 2.3086l-31.488 31.488 11.133 11.133 29.18-29.184h12.484v23.617c0 2.0859 0.83203 4.0898 2.3086 5.5664 1.4766 1.4727 3.4766 2.3047 5.5664 2.3047h94.465c2.0859 0 4.0898-0.83203 5.5664-2.3047 1.4727-1.4766 2.3047-3.4805 2.3047-5.5664v-62.977c0-2.0898-0.83203-4.0898-2.3047-5.5664-1.4766-1.4766-3.4805-2.3086-5.5664-2.3086zm-7.8711 62.977h-78.723v-47.23h78.719z"></path>
 </g>

      </g>
     <g id="IconSvg_iconCarrier">
      <g xmlns="http://www.w3.org/2000/svg">
  <path d="m376.38 305.54h15.742v15.742h-15.742z"></path>
  <path d="m407.87 305.54h15.742v15.742h-15.742z"></path>
  <path d="m392.12 352.77h15.742v15.742h-15.742z"></path>
  <path d="m632.66 275.37-23.617-15.742c-2.6445-1.7656-6.0898-1.7656-8.7383 0l-22.043 14.711-49.516 6.1875 64.41-46.531h0.003906c3.2773-2.3633 4.2266-6.8281 2.2031-10.328l20.469-11.809h-0.003906c1.8125-1.0391 3.1367-2.7617 3.6758-4.7812 0.54297-2.0156 0.26172-4.168-0.78516-5.9766l-7.8711-13.617v-0.003907c-1.3086-2.2812-3.6719-3.7578-6.2969-3.9336l-28.34-1.8203c-3.1719-0.20312-6.1523 1.5234-7.5586 4.3711l-11.77 23.758-48.246 36.516-43.691 16.367c-0.40625 0.15234-0.79688 0.33984-1.1719 0.55859l-18.648 10.754h-21.508v-15.949c7.6719-5.7188 12.992-14.047 14.957-23.41h4.7227c7.0312 0 13.531-3.7539 17.047-9.8398 3.5156-6.0898 3.5156-13.594 0-19.684-3.5156-6.0859-10.016-9.8398-17.047-9.8398h-4.7227c-2.4258-11.953-10.262-22.109-21.211-27.488-10.949-5.3828-23.773-5.3828-34.723 0-10.949 5.3789-18.785 15.535-21.211 27.488h-4.7227c-7.0312 0-13.527 3.7539-17.043 9.8398-3.5156 6.0898-3.5156 13.594 0 19.684 3.5156 6.0859 10.012 9.8398 17.043 9.8398h4.7227c1.9648 9.3633 7.2852 17.691 14.957 23.41v15.949h-21.508l-18.641-10.754c-0.375-0.21875-0.76562-0.40625-1.1719-0.55859l-43.699-16.367-48.238-36.516-11.809-23.773c-1.4219-2.832-4.3945-4.5469-7.5586-4.3633l-28.34 1.8203h0.003906c-2.625 0.17578-4.9883 1.6523-6.3008 3.9336l-7.8711 13.617v0.003906c-1.0469 1.8125-1.3281 3.9648-0.78125 5.9844 0.54297 2.0234 1.8711 3.7422 3.6875 4.7812l20.469 11.809h-0.003906c-2.0156 3.5039-1.0508 7.9648 2.2305 10.32l64.156 46.074 0.69922 0.51172-49.965-6.2422-22.043-14.711h0.003906c-2.6445-1.7656-6.0938-1.7656-8.7383 0l-23.617 15.742c-2.1914 1.4609-3.5117 3.9219-3.5117 6.5586v15.746c0 2.0859 0.83203 4.0898 2.3086 5.5664 1.4766 1.4727 3.4766 2.3047 5.5664 2.3047h23.613c-0.019531 4.0586 3.0508 7.4648 7.0859 7.8711l78.641 7.8711 63.844 7.0859v85.02l-60.48 89.242-43.957 61.211-24.664 1.6406c-2.625 0.17578-4.9883 1.6523-6.2969 3.9375l-3.9375 6.7695c-1.0508 1.8086-1.3398 3.9609-0.80078 5.9844 0.53906 2.0234 1.8633 3.7461 3.6758 4.793l40.934 23.617v-0.003906c3.3633 1.9414 7.6367 1.1367 10.07-1.8867l64.551-80.508 13.934-15.879-0.85938 12.863-7.5039 75.02-20.523 13.68 0.003906 0.003907c-2.1914 1.457-3.5039 3.918-3.5039 6.5469v7.875c0 2.0859 0.82812 4.0898 2.3047 5.5664 1.4766 1.4727 3.4805 2.3047 5.5664 2.3047h47.23c3.8867-0.003906 7.1875-2.8359 7.7773-6.6758l15.684-101.96 14.484-72.422h2.832l14.422 72.043 15.742 102.34 0.003906 0.003906c0.58984 3.8398 3.8906 6.6719 7.7773 6.6758h47.23c2.0898 0 4.0898-0.83203 5.5664-2.3047 1.4766-1.4766 2.3047-3.4805 2.3047-5.5664v-7.875c0.003906-2.6289-1.3125-5.0898-3.5-6.5469l-20.523-13.684-7.4766-74.785-0.9375-13.121 13.707 15.617 64.785 80.766v0.003906c2.4297 3.0234 6.7031 3.8281 10.066 1.8867l40.934-23.617c1.8125-1.043 3.1367-2.7695 3.6758-4.7891 0.53906-2.0234 0.25-4.1758-0.80078-5.9844l-3.9375-6.7695c-1.3086-2.2852-3.6719-3.7617-6.2969-3.9375l-24.633-1.6367-43.805-61.008-60.617-89.484v-84.961l40.461-4.4961 102.02-10.461c4.0391-0.40625 7.1055-3.8125 7.0859-7.8711h23.617c2.0859 0 4.0898-0.83203 5.5664-2.3047 1.4727-1.4766 2.3047-3.4805 2.3047-5.5664v-15.746c0-2.6328-1.3164-5.0898-3.5039-6.5508zm-117.4-14.648c0.71094-0.27344 1.3828-0.64453 1.9922-1.1016l50.617-38.336c0.97266-0.73828 1.7578-1.6914 2.2969-2.7891l10.234-20.727 18.895 1.2109 1.8203 3.1484-20.469 11.809h-0.003906c-3.7656 2.1719-5.0625 6.9805-2.8945 10.746l0.39453 0.66797-58.484 42.047-16.215 11.957-26.293-4.3672zm-120.36 178.64-34.254-27.402v-11.957h78.723v11.957l-34.25 27.402zm44.469-118.08v62.977h-78.723v-94.465h78.723zm-15.746-94.465c0 8.4375-4.5 16.234-11.809 20.453-7.3047 4.2188-16.309 4.2188-23.613 0-7.3086-4.2188-11.809-12.016-11.809-20.453v-15.742h15.742v15.742h-7.8711v15.742h31.488v-15.742h-7.8711v-15.742h15.742zm23.617-11.809v0.003906c0 1.043-0.41406 2.043-1.1523 2.7812-0.73828 0.73828-1.7383 1.1523-2.7852 1.1523h-3.9336v-7.8711h3.9375-0.003906c1.0469 0 2.0469 0.41406 2.7852 1.1523 0.73828 0.73828 1.1523 1.7383 1.1523 2.7852zm-47.23-35.422c4.8672 0.019531 9.6055 1.543 13.574 4.3633 3.9688 2.8164 6.9688 6.793 8.5938 11.379h-44.336c1.6211-4.5859 4.6211-8.5625 8.5898-11.379 3.9688-2.8203 8.7109-4.3438 13.578-4.3633zm-47.234 35.426c0-2.1758 1.7617-3.9375 3.9375-3.9375h3.9336v7.8711h-3.9375 0.003906c-2.1758 0-3.9375-1.7617-3.9375-3.9336zm39.359 50.383v-0.003906c5.1953 1.0586 10.551 1.0586 15.746 0v8.6602h-15.746zm-170.29-40.039 0.39453-0.66797-0.003906-0.003906c2.168-3.7656 0.87109-8.5742-2.8945-10.746l-20.469-11.809 1.8203-3.1484 18.895-1.2109 10.234 20.734h-0.003906c0.54297 1.0898 1.3281 2.043 2.3008 2.7812l50.617 38.336c0.60938 0.45703 1.2773 0.82812 1.9883 1.1016l38.141 14.266-26.277 4.375zm84.332 82.828-95.094-9.7305v-0.78516c0-2.0898-0.82812-4.0938-2.3047-5.5664-1.4766-1.4766-3.4805-2.3086-5.5664-2.3086h-23.617v-3.6602l15.742-10.508 19.246 12.832h0.003907c1.0156 0.67578 2.1797 1.1094 3.3906 1.2578l62.977 7.8711c0.75781 0.097657 1.5234 0.078125 2.2773-0.046875l46.586-7.7461h15.09v22.695zm5.8242 209.85-60.559 75.5-22.758-13.121 16.531-1.1016c2.3516-0.15625 4.5078-1.3555 5.8789-3.2695l46.25-64.41 45.492-67.172-3 41.848zm41.895 102.38h-26.309l13.793-9.1953c1.9805-1.293 3.2773-3.4062 3.5273-5.7617l7.8711-78.949 6.7148-94.023 0.085937-1.2344 23.902 19.129-14.863 74.367zm118.54 0h-26.309l-14.785-96.039-14.797-73.996 23.914-19.137 0.15625 2.2031 6.668 93.285 7.8711 78.719c0.23828 2.3438 1.5078 4.457 3.4648 5.7617zm76.516-44.375c1.3711 1.9141 3.5312 3.1133 5.8789 3.2695l16.531 1.1016-22.758 13.121-60.789-75.762-27.605-31.488-2.7305-38.012-0.27734-3.8008 45.656 67.336zm71.477-286.25h-23.613c-4.3477 0-7.875 3.5273-7.875 7.875v0.78516l-71.715 7.1719-62.109 6.8633v-22.695h15.09l46.578 7.7617h0.003907c0.75391 0.12109 1.5234 0.13672 2.2812 0.046875l62.977-7.8711c1.2148-0.14844 2.375-0.58203 3.3945-1.2578l19.246-12.848 15.742 10.492z"></path>
  <path d="m274.05 431.49v-23.617h31.488c2.0859 0 4.0898-0.83203 5.5664-2.3086l23.617-23.617-11.133-11.133-21.312 21.312h-28.227v-23.613c0-2.0898-0.83203-4.0898-2.3047-5.5664-1.4766-1.4766-3.4805-2.3086-5.5664-2.3086h-94.465c-4.3477 0-7.875 3.5273-7.875 7.875v62.977c0 2.0859 0.83203 4.0898 2.3086 5.5664 1.4766 1.4727 3.4766 2.3047 5.5664 2.3047h94.465c2.0859 0 4.0898-0.83203 5.5664-2.3047 1.4727-1.4766 2.3047-3.4805 2.3047-5.5664zm-15.742-7.8711-78.723-0.003907v-47.23h78.719z"></path>
  <path d="m628.29 360.64h-94.465c-4.3477 0-7.875 3.5273-7.875 7.875v23.617l-15.742-0.003906c-2.0859 0-4.0898 0.83203-5.5664 2.3086l-31.488 31.488 11.133 11.133 29.18-29.184h12.484v23.617c0 2.0859 0.83203 4.0898 2.3086 5.5664 1.4766 1.4727 3.4766 2.3047 5.5664 2.3047h94.465c2.0859 0 4.0898-0.83203 5.5664-2.3047 1.4727-1.4766 2.3047-3.4805 2.3047-5.5664v-62.977c0-2.0898-0.83203-4.0898-2.3047-5.5664-1.4766-1.4766-3.4805-2.3086-5.5664-2.3086zm-7.8711 62.977h-78.723v-47.23h78.719z"></path>
 </g>

      </g>
      </svg>